<?xml version="1.0" encoding="UTF-8" standalone="no"?>
<!DOCTYPE svg PUBLIC "-//W3C//DTD SVG 1.1//EN"
 "http://www.w3.org/Graphics/SVG/1.1/DTD/svg11.dtd">
<!-- Generated by graphviz version 2.43.0 (0)
 -->
<!-- Title: LwXMLP_CORE.c Pages: 1 -->
<svg width="541pt" height="252pt"
 viewBox="0.00 0.00 540.50 252.00" xmlns="http://www.w3.org/2000/svg" xmlns:xlink="http://www.w3.org/1999/xlink">
<g id="graph0" class="graph" transform="scale(1 1) rotate(0) translate(4 248)">
<title>LwXMLP_CORE.c</title>
<polygon fill="white" stroke="transparent" points="-4,4 -4,-248 536.5,-248 536.5,4 -4,4"/>
<!-- Node1 -->
<g id="node1" class="node">
<title>Node1</title>
<g id="a_node1"><a xlink:title="This is a source code file for the LwXMLP module which contain all the core API.">
<polygon fill="#bfbfbf" stroke="black" points="287,-224.5 287,-243.5 385,-243.5 385,-224.5 287,-224.5"/>
<text text-anchor="middle" x="336" y="-231.5" font-family="Helvetica,sans-Serif" font-size="10.00">LwXMLP_CORE.c</text>
</a>
</g>
</g>
<!-- Node2 -->
<g id="node2" class="node">
<title>Node2</title>
<g id="a_node2"><a xlink:href="_lw_x_m_l_p___c_o_r_e_8h.html" target="_top" xlink:title="This header file contain all the global definitions for the LwXMLP_CORE.">
<polygon fill="white" stroke="black" points="39,-168.5 39,-187.5 137,-187.5 137,-168.5 39,-168.5"/>
<text text-anchor="middle" x="88" y="-175.5" font-family="Helvetica,sans-Serif" font-size="10.00">LwXMLP_CORE.h</text>
</a>
</g>
</g>
<!-- Node1&#45;&gt;Node2 -->
<g id="edge1" class="edge">
<title>Node1&#45;&gt;Node2</title>
<path fill="none" stroke="midnightblue" d="M296.7,-224.44C253.44,-215.02 183.83,-199.87 137.03,-189.68"/>
<polygon fill="midnightblue" stroke="midnightblue" points="137.63,-186.22 127.11,-187.52 136.14,-193.06 137.63,-186.22"/>
</g>
<!-- Node7 -->
<g id="node7" class="node">
<title>Node7</title>
<g id="a_node7"><a xlink:href="_lw_x_m_l_p___p_r_i_v_a_t_e___t_y_p_e_s_8h.html" target="_top" xlink:title="This header file contain all the private types definitions for the LwXMLP_CORE which will be converte...">
<polygon fill="white" stroke="black" points="135,-112.5 135,-131.5 281,-131.5 281,-112.5 135,-112.5"/>
<text text-anchor="middle" x="208" y="-119.5" font-family="Helvetica,sans-Serif" font-size="10.00">LwXMLP_PRIVATE_TYPES.h</text>
</a>
</g>
</g>
<!-- Node1&#45;&gt;Node7 -->
<g id="edge15" class="edge">
<title>Node1&#45;&gt;Node7</title>
<path fill="none" stroke="midnightblue" d="M325.96,-224.37C304.27,-205.73 252.84,-161.53 225.61,-138.13"/>
<polygon fill="midnightblue" stroke="midnightblue" points="227.86,-135.45 218,-131.59 223.3,-140.76 227.86,-135.45"/>
</g>
<!-- Node8 -->
<g id="node8" class="node">
<title>Node8</title>
<g id="a_node8"><a xlink:href="_lw_x_m_l_p___e_n_c_o_d_i_n_g_8h.html" target="_top" xlink:title="This header file contain all the global definitions for the LwXMLP_ENCODING.">
<polygon fill="white" stroke="black" points="213.5,-56.5 213.5,-75.5 338.5,-75.5 338.5,-56.5 213.5,-56.5"/>
<text text-anchor="middle" x="276" y="-63.5" font-family="Helvetica,sans-Serif" font-size="10.00">LwXMLP_ENCODING.h</text>
</a>
</g>
</g>
<!-- Node1&#45;&gt;Node8 -->
<g id="edge12" class="edge">
<title>Node1&#45;&gt;Node8</title>
<path fill="none" stroke="midnightblue" d="M332.77,-224.08C323.29,-197.83 295.35,-120.55 282.55,-85.12"/>
<polygon fill="midnightblue" stroke="midnightblue" points="285.79,-83.78 279.1,-75.57 279.2,-86.16 285.79,-83.78"/>
</g>
<!-- Node9 -->
<g id="node9" class="node">
<title>Node9</title>
<g id="a_node9"><a xlink:title=" ">
<polygon fill="white" stroke="#bfbfbf" points="337.5,-168.5 337.5,-187.5 390.5,-187.5 390.5,-168.5 337.5,-168.5"/>
<text text-anchor="middle" x="364" y="-175.5" font-family="Helvetica,sans-Serif" font-size="10.00">string.h</text>
</a>
</g>
</g>
<!-- Node1&#45;&gt;Node9 -->
<g id="edge13" class="edge">
<title>Node1&#45;&gt;Node9</title>
<path fill="none" stroke="midnightblue" d="M340.62,-224.08C344.46,-216.69 350.02,-205.95 354.76,-196.81"/>
<polygon fill="midnightblue" stroke="midnightblue" points="357.97,-198.24 359.46,-187.75 351.75,-195.02 357.97,-198.24"/>
</g>
<!-- Node10 -->
<g id="node10" class="node">
<title>Node10</title>
<g id="a_node10"><a xlink:title=" ">
<polygon fill="white" stroke="#bfbfbf" points="408.5,-168.5 408.5,-187.5 461.5,-187.5 461.5,-168.5 408.5,-168.5"/>
<text text-anchor="middle" x="435" y="-175.5" font-family="Helvetica,sans-Serif" font-size="10.00">ctype.h</text>
</a>
</g>
</g>
<!-- Node1&#45;&gt;Node10 -->
<g id="edge14" class="edge">
<title>Node1&#45;&gt;Node10</title>
<path fill="none" stroke="midnightblue" d="M351.91,-224.32C367.64,-215.74 391.94,-202.49 410.21,-192.52"/>
<polygon fill="midnightblue" stroke="midnightblue" points="412.03,-195.52 419.13,-187.65 408.68,-189.37 412.03,-195.52"/>
</g>
<!-- Node11 -->
<g id="node11" class="node">
<title>Node11</title>
<g id="a_node11"><a xlink:title=" ">
<polygon fill="white" stroke="#bfbfbf" points="479.5,-168.5 479.5,-187.5 532.5,-187.5 532.5,-168.5 479.5,-168.5"/>
<text text-anchor="middle" x="506" y="-175.5" font-family="Helvetica,sans-Serif" font-size="10.00">stdlib.h</text>
</a>
</g>
</g>
<!-- Node1&#45;&gt;Node11 -->
<g id="edge16" class="edge">
<title>Node1&#45;&gt;Node11</title>
<path fill="none" stroke="midnightblue" d="M362.94,-224.44C391.74,-215.29 437.6,-200.73 469.6,-190.56"/>
<polygon fill="midnightblue" stroke="midnightblue" points="471,-193.79 479.47,-187.43 468.88,-187.12 471,-193.79"/>
</g>
<!-- Node3 -->
<g id="node3" class="node">
<title>Node3</title>
<g id="a_node3"><a xlink:href="_s_t_d___t_y_p_e_8h.html" target="_top" xlink:title="This file contains the redefinition for the standard types.">
<polygon fill="white" stroke="black" points="0,-0.5 0,-19.5 74,-19.5 74,-0.5 0,-0.5"/>
<text text-anchor="middle" x="37" y="-7.5" font-family="Helvetica,sans-Serif" font-size="10.00">STD_TYPE.h</text>
</a>
</g>
</g>
<!-- Node2&#45;&gt;Node3 -->
<g id="edge2" class="edge">
<title>Node2&#45;&gt;Node3</title>
<path fill="none" stroke="midnightblue" d="M62.84,-168.38C46.58,-161.34 26.71,-149.65 17,-132 -1.23,-98.86 15.47,-53.46 27.4,-28.76"/>
<polygon fill="midnightblue" stroke="midnightblue" points="30.68,-30.04 32.1,-19.54 24.44,-26.86 30.68,-30.04"/>
</g>
<!-- Node4 -->
<g id="node4" class="node">
<title>Node4</title>
<g id="a_node4"><a xlink:href="_verbose_8h.html" target="_top" xlink:title="This is the header file which define the verbose function and the verbose levels.">
<polygon fill="white" stroke="black" points="114.5,-0.5 114.5,-19.5 185.5,-19.5 185.5,-0.5 114.5,-0.5"/>
<text text-anchor="middle" x="150" y="-7.5" font-family="Helvetica,sans-Serif" font-size="10.00">VERBOSE.h</text>
</a>
</g>
</g>
<!-- Node2&#45;&gt;Node4 -->
<g id="edge3" class="edge">
<title>Node2&#45;&gt;Node4</title>
<path fill="none" stroke="midnightblue" d="M78.98,-168.34C70.93,-159.93 59.7,-146.36 55,-132 44.49,-99.9 36.94,-84.54 55,-56 66.05,-38.53 85.92,-27.71 104.64,-21.08"/>
<polygon fill="midnightblue" stroke="midnightblue" points="105.82,-24.37 114.27,-17.98 103.68,-17.71 105.82,-24.37"/>
</g>
<!-- Node5 -->
<g id="node5" class="node">
<title>Node5</title>
<g id="a_node5"><a xlink:href="_lw_x_m_l_p___f_c_f_g_8h.html" target="_top" xlink:title="This is the header file of the LwXMLP_CORE fixed configuration which contain all macros which control...">
<polygon fill="white" stroke="black" points="97,-56.5 97,-75.5 195,-75.5 195,-56.5 97,-56.5"/>
<text text-anchor="middle" x="146" y="-63.5" font-family="Helvetica,sans-Serif" font-size="10.00">LwXMLP_FCFG.h</text>
</a>
</g>
</g>
<!-- Node2&#45;&gt;Node5 -->
<g id="edge4" class="edge">
<title>Node2&#45;&gt;Node5</title>
<path fill="none" stroke="midnightblue" d="M92.55,-168.37C102.04,-150.38 124.09,-108.55 136.71,-84.63"/>
<polygon fill="midnightblue" stroke="midnightblue" points="139.9,-86.07 141.47,-75.59 133.71,-82.8 139.9,-86.07"/>
</g>
<!-- Node6 -->
<g id="node6" class="node">
<title>Node6</title>
<g id="a_node6"><a xlink:href="_lw_x_m_l_p___t_y_p_e_s_8h.html" target="_top" xlink:title="This is the header file contain the global data types.">
<polygon fill="white" stroke="black" points="214.5,-0.5 214.5,-19.5 315.5,-19.5 315.5,-0.5 214.5,-0.5"/>
<text text-anchor="middle" x="265" y="-7.5" font-family="Helvetica,sans-Serif" font-size="10.00">LwXMLP_TYPES.h</text>
</a>
</g>
</g>
<!-- Node2&#45;&gt;Node6 -->
<g id="edge5" class="edge">
<title>Node2&#45;&gt;Node6</title>
<path fill="none" stroke="midnightblue" d="M84.74,-168.24C77.31,-146.58 61.69,-89.83 88,-56 102.34,-37.56 158.82,-25.44 204.17,-18.47"/>
<polygon fill="midnightblue" stroke="midnightblue" points="204.87,-21.91 214.25,-16.98 203.84,-14.98 204.87,-21.91"/>
</g>
<!-- Node2&#45;&gt;Node7 -->
<g id="edge6" class="edge">
<title>Node2&#45;&gt;Node7</title>
<path fill="none" stroke="midnightblue" d="M107.01,-168.44C126.59,-159.64 157.31,-145.81 179.73,-135.72"/>
<polygon fill="midnightblue" stroke="midnightblue" points="181.39,-138.81 189.07,-131.52 178.52,-132.43 181.39,-138.81"/>
</g>
<!-- Node7&#45;&gt;Node5 -->
<g id="edge7" class="edge">
<title>Node7&#45;&gt;Node5</title>
<path fill="none" stroke="midnightblue" d="M198.04,-112.32C188.87,-104.34 175.06,-92.31 163.97,-82.65"/>
<polygon fill="midnightblue" stroke="midnightblue" points="165.98,-79.76 156.14,-75.83 161.38,-85.04 165.98,-79.76"/>
</g>
<!-- Node7&#45;&gt;Node8 -->
<g id="edge8" class="edge">
<title>Node7&#45;&gt;Node8</title>
<path fill="none" stroke="midnightblue" d="M218.93,-112.32C229.17,-104.18 244.72,-91.84 257,-82.09"/>
<polygon fill="midnightblue" stroke="midnightblue" points="259.22,-84.79 264.88,-75.83 254.87,-79.31 259.22,-84.79"/>
</g>
<!-- Node8&#45;&gt;Node3 -->
<g id="edge9" class="edge">
<title>Node8&#45;&gt;Node3</title>
<path fill="none" stroke="midnightblue" d="M238.13,-56.44C196.4,-47.02 129.24,-31.84 84.13,-21.65"/>
<polygon fill="midnightblue" stroke="midnightblue" points="84.83,-18.22 74.3,-19.43 83.28,-25.05 84.83,-18.22"/>
</g>
<!-- Node8&#45;&gt;Node4 -->
<g id="edge10" class="edge">
<title>Node8&#45;&gt;Node4</title>
<path fill="none" stroke="midnightblue" d="M256.03,-56.44C235.39,-47.6 202.94,-33.69 179.37,-23.59"/>
<polygon fill="midnightblue" stroke="midnightblue" points="180.44,-20.24 169.87,-19.52 177.68,-26.67 180.44,-20.24"/>
</g>
<!-- Node8&#45;&gt;Node6 -->
<g id="edge11" class="edge">
<title>Node8&#45;&gt;Node6</title>
<path fill="none" stroke="midnightblue" d="M274.18,-56.08C272.73,-48.93 270.63,-38.64 268.81,-29.69"/>
<polygon fill="midnightblue" stroke="midnightblue" points="272.21,-28.85 266.78,-19.75 265.35,-30.25 272.21,-28.85"/>
</g>
</g>
</svg>
