<?xml version="1.0" encoding="UTF-8" standalone="no"?>
<!DOCTYPE svg PUBLIC "-//W3C//DTD SVG 1.1//EN"
 "http://www.w3.org/Graphics/SVG/1.1/DTD/svg11.dtd">
<!-- Generated by graphviz version 2.43.0 (0)
 -->
<!-- Title: LwXMLP_CORE.h Pages: 1 -->
<svg width="356pt" height="196pt"
 viewBox="0.00 0.00 355.50 196.00" xmlns="http://www.w3.org/2000/svg" xmlns:xlink="http://www.w3.org/1999/xlink">
<g id="graph0" class="graph" transform="scale(1 1) rotate(0) translate(4 192)">
<title>LwXMLP_CORE.h</title>
<polygon fill="white" stroke="transparent" points="-4,4 -4,-192 351.5,-192 351.5,4 -4,4"/>
<!-- Node1 -->
<g id="node1" class="node">
<title>Node1</title>
<g id="a_node1"><a xlink:title="This header file contain all the global definitions for the LwXMLP_CORE.">
<polygon fill="#bfbfbf" stroke="black" points="117,-168.5 117,-187.5 215,-187.5 215,-168.5 117,-168.5"/>
<text text-anchor="middle" x="166" y="-175.5" font-family="Helvetica,sans-Serif" font-size="10.00">LwXMLP_CORE.h</text>
</a>
</g>
</g>
<!-- Node2 -->
<g id="node2" class="node">
<title>Node2</title>
<g id="a_node2"><a xlink:href="_s_t_d___t_y_p_e_8h.html" target="_top" xlink:title="This file contains the redefinition for the standard types.">
<polygon fill="white" stroke="black" points="0,-0.5 0,-19.5 74,-19.5 74,-0.5 0,-0.5"/>
<text text-anchor="middle" x="37" y="-7.5" font-family="Helvetica,sans-Serif" font-size="10.00">STD_TYPE.h</text>
</a>
</g>
</g>
<!-- Node1&#45;&gt;Node2 -->
<g id="edge1" class="edge">
<title>Node1&#45;&gt;Node2</title>
<path fill="none" stroke="midnightblue" d="M129,-168.45C108.24,-161.82 83.48,-150.54 68,-132 43.42,-102.55 38.01,-56.02 37.01,-30.08"/>
<polygon fill="midnightblue" stroke="midnightblue" points="40.5,-29.68 36.81,-19.75 33.5,-29.81 40.5,-29.68"/>
</g>
<!-- Node3 -->
<g id="node3" class="node">
<title>Node3</title>
<g id="a_node3"><a xlink:href="_verbose_8h.html" target="_top" xlink:title="This is the header file which define the verbose function and the verbose levels.">
<polygon fill="white" stroke="black" points="101.5,-0.5 101.5,-19.5 172.5,-19.5 172.5,-0.5 101.5,-0.5"/>
<text text-anchor="middle" x="137" y="-7.5" font-family="Helvetica,sans-Serif" font-size="10.00">VERBOSE.h</text>
</a>
</g>
</g>
<!-- Node1&#45;&gt;Node3 -->
<g id="edge2" class="edge">
<title>Node1&#45;&gt;Node3</title>
<path fill="none" stroke="midnightblue" d="M136.83,-168.35C118.75,-161.45 96.63,-149.92 84,-132 64.4,-104.2 59.55,-86.3 75,-56 82,-42.27 95.37,-31.75 107.9,-24.35"/>
<polygon fill="midnightblue" stroke="midnightblue" points="109.67,-27.37 116.78,-19.51 106.32,-21.22 109.67,-27.37"/>
</g>
<!-- Node4 -->
<g id="node4" class="node">
<title>Node4</title>
<g id="a_node4"><a xlink:href="_lw_x_m_l_p___f_c_f_g_8h.html" target="_top" xlink:title="This is the header file of the LwXMLP_CORE fixed configuration which contain all macros which control...">
<polygon fill="white" stroke="black" points="228,-56.5 228,-75.5 326,-75.5 326,-56.5 228,-56.5"/>
<text text-anchor="middle" x="277" y="-63.5" font-family="Helvetica,sans-Serif" font-size="10.00">LwXMLP_FCFG.h</text>
</a>
</g>
</g>
<!-- Node1&#45;&gt;Node4 -->
<g id="edge3" class="edge">
<title>Node1&#45;&gt;Node4</title>
<path fill="none" stroke="midnightblue" d="M190.63,-168.42C208.53,-161.12 232.27,-149.08 248,-132 260.15,-118.8 267.85,-99.67 272.23,-85.58"/>
<polygon fill="midnightblue" stroke="midnightblue" points="275.71,-86.14 275.06,-75.56 268.98,-84.24 275.71,-86.14"/>
</g>
<!-- Node5 -->
<g id="node5" class="node">
<title>Node5</title>
<g id="a_node5"><a xlink:href="_lw_x_m_l_p___t_y_p_e_s_8h.html" target="_top" xlink:title="This is the header file contain the global data types.">
<polygon fill="white" stroke="black" points="246.5,-0.5 246.5,-19.5 347.5,-19.5 347.5,-0.5 246.5,-0.5"/>
<text text-anchor="middle" x="297" y="-7.5" font-family="Helvetica,sans-Serif" font-size="10.00">LwXMLP_TYPES.h</text>
</a>
</g>
</g>
<!-- Node1&#45;&gt;Node5 -->
<g id="edge4" class="edge">
<title>Node1&#45;&gt;Node5</title>
<path fill="none" stroke="midnightblue" d="M201.7,-168.39C243.55,-156.07 310.32,-128.79 335,-76 343.24,-58.38 329.06,-39.28 315.74,-26.38"/>
<polygon fill="midnightblue" stroke="midnightblue" points="317.95,-23.65 308.18,-19.56 313.26,-28.85 317.95,-23.65"/>
</g>
<!-- Node6 -->
<g id="node6" class="node">
<title>Node6</title>
<g id="a_node6"><a xlink:href="_lw_x_m_l_p___p_r_i_v_a_t_e___t_y_p_e_s_8h.html" target="_top" xlink:title="This header file contain all the private types definitions for the LwXMLP_CORE which will be converte...">
<polygon fill="white" stroke="black" points="93,-112.5 93,-131.5 239,-131.5 239,-112.5 93,-112.5"/>
<text text-anchor="middle" x="166" y="-119.5" font-family="Helvetica,sans-Serif" font-size="10.00">LwXMLP_PRIVATE_TYPES.h</text>
</a>
</g>
</g>
<!-- Node1&#45;&gt;Node6 -->
<g id="edge5" class="edge">
<title>Node1&#45;&gt;Node6</title>
<path fill="none" stroke="midnightblue" d="M166,-168.08C166,-161.01 166,-150.86 166,-141.99"/>
<polygon fill="midnightblue" stroke="midnightblue" points="169.5,-141.75 166,-131.75 162.5,-141.75 169.5,-141.75"/>
</g>
<!-- Node6&#45;&gt;Node4 -->
<g id="edge6" class="edge">
<title>Node6&#45;&gt;Node4</title>
<path fill="none" stroke="midnightblue" d="M183.83,-112.32C201.72,-103.62 229.48,-90.12 250.05,-80.11"/>
<polygon fill="midnightblue" stroke="midnightblue" points="251.75,-83.18 259.21,-75.65 248.69,-76.88 251.75,-83.18"/>
</g>
<!-- Node7 -->
<g id="node7" class="node">
<title>Node7</title>
<g id="a_node7"><a xlink:href="_lw_x_m_l_p___e_n_c_o_d_i_n_g_8h.html" target="_top" xlink:title="This header file contain all the global definitions for the LwXMLP_ENCODING.">
<polygon fill="white" stroke="black" points="84.5,-56.5 84.5,-75.5 209.5,-75.5 209.5,-56.5 84.5,-56.5"/>
<text text-anchor="middle" x="147" y="-63.5" font-family="Helvetica,sans-Serif" font-size="10.00">LwXMLP_ENCODING.h</text>
</a>
</g>
</g>
<!-- Node6&#45;&gt;Node7 -->
<g id="edge7" class="edge">
<title>Node6&#45;&gt;Node7</title>
<path fill="none" stroke="midnightblue" d="M162.86,-112.08C160.32,-104.85 156.64,-94.41 153.47,-85.4"/>
<polygon fill="midnightblue" stroke="midnightblue" points="156.7,-84.02 150.08,-75.75 150.1,-86.35 156.7,-84.02"/>
</g>
<!-- Node7&#45;&gt;Node2 -->
<g id="edge8" class="edge">
<title>Node7&#45;&gt;Node2</title>
<path fill="none" stroke="midnightblue" d="M129.33,-56.32C111.61,-47.62 84.1,-34.12 63.71,-24.11"/>
<polygon fill="midnightblue" stroke="midnightblue" points="65.15,-20.92 54.63,-19.65 62.06,-27.2 65.15,-20.92"/>
</g>
<!-- Node7&#45;&gt;Node3 -->
<g id="edge9" class="edge">
<title>Node7&#45;&gt;Node3</title>
<path fill="none" stroke="midnightblue" d="M145.35,-56.08C144.02,-48.93 142.12,-38.64 140.46,-29.69"/>
<polygon fill="midnightblue" stroke="midnightblue" points="143.88,-28.95 138.62,-19.75 137,-30.22 143.88,-28.95"/>
</g>
<!-- Node7&#45;&gt;Node5 -->
<g id="edge10" class="edge">
<title>Node7&#45;&gt;Node5</title>
<path fill="none" stroke="midnightblue" d="M170.77,-56.44C195.89,-47.4 235.71,-33.06 263.9,-22.92"/>
<polygon fill="midnightblue" stroke="midnightblue" points="265.12,-26.2 273.34,-19.52 262.75,-19.61 265.12,-26.2"/>
</g>
</g>
</svg>
