<?xml version="1.0" encoding="UTF-8" standalone="no"?>
<!DOCTYPE svg PUBLIC "-//W3C//DTD SVG 1.1//EN"
 "http://www.w3.org/Graphics/SVG/1.1/DTD/svg11.dtd">
<!-- Generated by graphviz version 2.43.0 (0)
 -->
<!-- Title: LwXMLP_TYPES.h Pages: 1 -->
<svg width="347pt" height="252pt"
 viewBox="0.00 0.00 347.20 252.00" xmlns="http://www.w3.org/2000/svg" xmlns:xlink="http://www.w3.org/1999/xlink">
<g id="graph0" class="graph" transform="scale(1 1) rotate(0) translate(4 248)">
<title>LwXMLP_TYPES.h</title>
<polygon fill="white" stroke="transparent" points="-4,4 -4,-248 343.2,-248 343.2,4 -4,4"/>
<!-- Node1 -->
<g id="node1" class="node">
<title>Node1</title>
<g id="a_node1"><a xlink:title="This is the header file contain the global data types.">
<polygon fill="#bfbfbf" stroke="black" points="0,-224.5 0,-243.5 101,-243.5 101,-224.5 0,-224.5"/>
<text text-anchor="middle" x="50.5" y="-231.5" font-family="Helvetica,sans-Serif" font-size="10.00">LwXMLP_TYPES.h</text>
</a>
</g>
</g>
<!-- Node2 -->
<g id="node2" class="node">
<title>Node2</title>
<g id="a_node2"><a xlink:href="_lw_x_m_l_p___c_o_r_e_8h.html" target="_top" xlink:title="This header file contain all the global definitions for the LwXMLP_CORE.">
<polygon fill="white" stroke="black" points="153.5,-56.5 153.5,-75.5 251.5,-75.5 251.5,-56.5 153.5,-56.5"/>
<text text-anchor="middle" x="202.5" y="-63.5" font-family="Helvetica,sans-Serif" font-size="10.00">LwXMLP_CORE.h</text>
</a>
</g>
</g>
<!-- Node1&#45;&gt;Node2 -->
<g id="edge1" class="edge">
<title>Node1&#45;&gt;Node2</title>
<path fill="none" stroke="midnightblue" d="M38.93,-215.78C23.47,-190.41 0.62,-142.67 24.5,-112 40.22,-91.82 106.19,-79.25 153.23,-72.69"/>
<polygon fill="midnightblue" stroke="midnightblue" points="36.06,-217.78 44.38,-224.33 41.96,-214.02 36.06,-217.78"/>
</g>
<!-- Node4 -->
<g id="node4" class="node">
<title>Node4</title>
<g id="a_node4"><a xlink:href="_lw_x_m_l_p___e_n_c_o_d_i_n_g_8h.html" target="_top" xlink:title="This header file contain all the global definitions for the LwXMLP_ENCODING.">
<polygon fill="white" stroke="black" points="110,-168.5 110,-187.5 235,-187.5 235,-168.5 110,-168.5"/>
<text text-anchor="middle" x="172.5" y="-175.5" font-family="Helvetica,sans-Serif" font-size="10.00">LwXMLP_ENCODING.h</text>
</a>
</g>
</g>
<!-- Node1&#45;&gt;Node4 -->
<g id="edge3" class="edge">
<title>Node1&#45;&gt;Node4</title>
<path fill="none" stroke="midnightblue" d="M79.04,-220.37C101.89,-210.26 133.31,-196.35 153.26,-187.52"/>
<polygon fill="midnightblue" stroke="midnightblue" points="77.56,-217.2 69.83,-224.44 80.39,-223.6 77.56,-217.2"/>
</g>
<!-- Node3 -->
<g id="node3" class="node">
<title>Node3</title>
<g id="a_node3"><a xlink:href="_lw_x_m_l_p___c_o_r_e_8c.html" target="_top" xlink:title="This is a source code file for the LwXMLP module which contain all the core API.">
<polygon fill="white" stroke="black" points="230.5,-0.5 230.5,-19.5 328.5,-19.5 328.5,-0.5 230.5,-0.5"/>
<text text-anchor="middle" x="279.5" y="-7.5" font-family="Helvetica,sans-Serif" font-size="10.00">LwXMLP_CORE.c</text>
</a>
</g>
</g>
<!-- Node2&#45;&gt;Node3 -->
<g id="edge2" class="edge">
<title>Node2&#45;&gt;Node3</title>
<path fill="none" stroke="midnightblue" d="M223.4,-50.34C237.41,-40.52 255.38,-27.91 267.16,-19.65"/>
<polygon fill="midnightblue" stroke="midnightblue" points="221.05,-47.72 214.87,-56.32 225.07,-53.45 221.05,-47.72"/>
</g>
<!-- Node4&#45;&gt;Node3 -->
<g id="edge4" class="edge">
<title>Node4&#45;&gt;Node3</title>
<path fill="none" stroke="midnightblue" d="M237.69,-166.55C275.93,-158.95 318.94,-147.31 330.5,-132 358.38,-95.07 309.98,-40.62 288.74,-19.66"/>
<polygon fill="midnightblue" stroke="midnightblue" points="236.74,-163.17 227.58,-168.5 238.06,-170.05 236.74,-163.17"/>
</g>
<!-- Node5 -->
<g id="node5" class="node">
<title>Node5</title>
<g id="a_node5"><a xlink:href="_lw_x_m_l_p___e_n_c_o_d_i_n_g_8c.html" target="_top" xlink:title="This is a source code file for the different encoding schemes.">
<polygon fill="white" stroke="black" points="33.5,-112.5 33.5,-131.5 157.5,-131.5 157.5,-112.5 33.5,-112.5"/>
<text text-anchor="middle" x="95.5" y="-119.5" font-family="Helvetica,sans-Serif" font-size="10.00">LwXMLP_ENCODING.c</text>
</a>
</g>
</g>
<!-- Node4&#45;&gt;Node5 -->
<g id="edge5" class="edge">
<title>Node4&#45;&gt;Node5</title>
<path fill="none" stroke="midnightblue" d="M151.6,-162.34C137.59,-152.52 119.62,-139.91 107.84,-131.65"/>
<polygon fill="midnightblue" stroke="midnightblue" points="149.93,-165.45 160.13,-168.32 153.95,-159.72 149.93,-165.45"/>
</g>
<!-- Node6 -->
<g id="node6" class="node">
<title>Node6</title>
<g id="a_node6"><a xlink:href="_lw_x_m_l_p___p_r_i_v_a_t_e___t_y_p_e_s_8h.html" target="_top" xlink:title="This header file contain all the private types definitions for the LwXMLP_CORE which will be converte...">
<polygon fill="white" stroke="black" points="175.5,-112.5 175.5,-131.5 321.5,-131.5 321.5,-112.5 175.5,-112.5"/>
<text text-anchor="middle" x="248.5" y="-119.5" font-family="Helvetica,sans-Serif" font-size="10.00">LwXMLP_PRIVATE_TYPES.h</text>
</a>
</g>
</g>
<!-- Node4&#45;&gt;Node6 -->
<g id="edge6" class="edge">
<title>Node4&#45;&gt;Node6</title>
<path fill="none" stroke="midnightblue" d="M193.08,-162.38C206.81,-152.62 224.43,-140.11 236.07,-131.83"/>
<polygon fill="midnightblue" stroke="midnightblue" points="190.84,-159.68 184.71,-168.32 194.89,-165.38 190.84,-159.68"/>
</g>
<!-- Node6&#45;&gt;Node2 -->
<g id="edge8" class="edge">
<title>Node6&#45;&gt;Node2</title>
<path fill="none" stroke="midnightblue" d="M234.39,-104.43C226.32,-94.97 216.54,-83.48 209.95,-75.75"/>
<polygon fill="midnightblue" stroke="midnightblue" points="231.75,-106.74 240.9,-112.08 237.08,-102.2 231.75,-106.74"/>
</g>
<!-- Node6&#45;&gt;Node3 -->
<g id="edge7" class="edge">
<title>Node6&#45;&gt;Node3</title>
<path fill="none" stroke="midnightblue" d="M253.66,-102.67C260.44,-78.62 272.06,-37.39 277.08,-19.59"/>
<polygon fill="midnightblue" stroke="midnightblue" points="250.28,-101.79 250.93,-112.37 257.01,-103.69 250.28,-101.79"/>
</g>
</g>
</svg>
