<?xml version="1.0" encoding="UTF-8" standalone="no"?>
<!DOCTYPE svg PUBLIC "-//W3C//DTD SVG 1.1//EN"
 "http://www.w3.org/Graphics/SVG/1.1/DTD/svg11.dtd">
<!-- Generated by graphviz version 2.43.0 (0)
 -->
<!-- Title: LwXMLP_PRIVATE_TYPES.h Pages: 1 -->
<svg width="169pt" height="140pt"
 viewBox="0.00 0.00 169.00 140.00" xmlns="http://www.w3.org/2000/svg" xmlns:xlink="http://www.w3.org/1999/xlink">
<g id="graph0" class="graph" transform="scale(1 1) rotate(0) translate(4 136)">
<title>LwXMLP_PRIVATE_TYPES.h</title>
<polygon fill="white" stroke="transparent" points="-4,4 -4,-136 165,-136 165,4 -4,4"/>
<!-- Node1 -->
<g id="node1" class="node">
<title>Node1</title>
<g id="a_node1"><a xlink:title="This header file contain all the private types definitions for the LwXMLP_CORE which will be converte...">
<polygon fill="#bfbfbf" stroke="black" points="0,-112.5 0,-131.5 146,-131.5 146,-112.5 0,-112.5"/>
<text text-anchor="middle" x="73" y="-119.5" font-family="Helvetica,sans-Serif" font-size="10.00">LwXMLP_PRIVATE_TYPES.h</text>
</a>
</g>
</g>
<!-- Node2 -->
<g id="node2" class="node">
<title>Node2</title>
<g id="a_node2"><a xlink:href="_lw_x_m_l_p___c_o_r_e_8c.html" target="_top" xlink:title="This is a source code file for the LwXMLP module which contain all the core API.">
<polygon fill="white" stroke="black" points="24,-0.5 24,-19.5 122,-19.5 122,-0.5 24,-0.5"/>
<text text-anchor="middle" x="73" y="-7.5" font-family="Helvetica,sans-Serif" font-size="10.00">LwXMLP_CORE.c</text>
</a>
</g>
</g>
<!-- Node1&#45;&gt;Node2 -->
<g id="edge1" class="edge">
<title>Node1&#45;&gt;Node2</title>
<path fill="none" stroke="midnightblue" d="M63.57,-103.25C59.79,-95.17 55.89,-85.35 54,-76 49.85,-55.49 60.66,-32.08 67.63,-19.71"/>
<polygon fill="midnightblue" stroke="midnightblue" points="60.53,-104.99 68.12,-112.37 66.79,-101.86 60.53,-104.99"/>
</g>
<!-- Node3 -->
<g id="node3" class="node">
<title>Node3</title>
<g id="a_node3"><a xlink:href="_lw_x_m_l_p___c_o_r_e_8h.html" target="_top" xlink:title="This header file contain all the global definitions for the LwXMLP_CORE.">
<polygon fill="white" stroke="black" points="63,-56.5 63,-75.5 161,-75.5 161,-56.5 63,-56.5"/>
<text text-anchor="middle" x="112" y="-63.5" font-family="Helvetica,sans-Serif" font-size="10.00">LwXMLP_CORE.h</text>
</a>
</g>
</g>
<!-- Node1&#45;&gt;Node3 -->
<g id="edge2" class="edge">
<title>Node1&#45;&gt;Node3</title>
<path fill="none" stroke="midnightblue" d="M85.38,-103.86C92.14,-94.5 100.21,-83.33 105.68,-75.75"/>
<polygon fill="midnightblue" stroke="midnightblue" points="82.46,-101.93 79.44,-112.08 88.13,-106.03 82.46,-101.93"/>
</g>
<!-- Node3&#45;&gt;Node2 -->
<g id="edge3" class="edge">
<title>Node3&#45;&gt;Node2</title>
<path fill="none" stroke="midnightblue" d="M99.62,-47.86C92.86,-38.5 84.79,-27.33 79.32,-19.75"/>
<polygon fill="midnightblue" stroke="midnightblue" points="96.87,-50.03 105.56,-56.08 102.54,-45.93 96.87,-50.03"/>
</g>
</g>
</svg>
