<?xml version="1.0" encoding="UTF-8" standalone="no"?>
<!DOCTYPE svg PUBLIC "-//W3C//DTD SVG 1.1//EN"
 "http://www.w3.org/Graphics/SVG/1.1/DTD/svg11.dtd">
<!-- Generated by graphviz version 2.43.0 (0)
 -->
<!-- Title: LwXMLP_ENCODING.h Pages: 1 -->
<svg width="308pt" height="196pt"
 viewBox="0.00 0.00 308.02 196.00" xmlns="http://www.w3.org/2000/svg" xmlns:xlink="http://www.w3.org/1999/xlink">
<g id="graph0" class="graph" transform="scale(1 1) rotate(0) translate(4 192)">
<title>LwXMLP_ENCODING.h</title>
<polygon fill="white" stroke="transparent" points="-4,4 -4,-192 304.02,-192 304.02,4 -4,4"/>
<!-- Node1 -->
<g id="node1" class="node">
<title>Node1</title>
<g id="a_node1"><a xlink:title="This header file contain all the global definitions for the LwXMLP_ENCODING.">
<polygon fill="#bfbfbf" stroke="black" points="11.52,-168.5 11.52,-187.5 136.52,-187.5 136.52,-168.5 11.52,-168.5"/>
<text text-anchor="middle" x="74.02" y="-175.5" font-family="Helvetica,sans-Serif" font-size="10.00">LwXMLP_ENCODING.h</text>
</a>
</g>
</g>
<!-- Node2 -->
<g id="node2" class="node">
<title>Node2</title>
<g id="a_node2"><a xlink:href="_lw_x_m_l_p___c_o_r_e_8c.html" target="_top" xlink:title="This is a source code file for the LwXMLP module which contain all the core API.">
<polygon fill="white" stroke="black" points="101.02,-0.5 101.02,-19.5 199.02,-19.5 199.02,-0.5 101.02,-0.5"/>
<text text-anchor="middle" x="150.02" y="-7.5" font-family="Helvetica,sans-Serif" font-size="10.00">LwXMLP_CORE.c</text>
</a>
</g>
</g>
<!-- Node1&#45;&gt;Node2 -->
<g id="edge1" class="edge">
<title>Node1&#45;&gt;Node2</title>
<path fill="none" stroke="midnightblue" d="M41.62,-164.22C17.76,-152.71 -8.66,-134.2 3.02,-112 28.83,-62.95 90.42,-33.11 125.13,-19.6"/>
<polygon fill="midnightblue" stroke="midnightblue" points="40.34,-167.49 50.89,-168.43 43.23,-161.11 40.34,-167.49"/>
</g>
<!-- Node3 -->
<g id="node3" class="node">
<title>Node3</title>
<g id="a_node3"><a xlink:href="_lw_x_m_l_p___e_n_c_o_d_i_n_g_8c.html" target="_top" xlink:title="This is a source code file for the different encoding schemes.">
<polygon fill="white" stroke="black" points="12.02,-112.5 12.02,-131.5 136.02,-131.5 136.02,-112.5 12.02,-112.5"/>
<text text-anchor="middle" x="74.02" y="-119.5" font-family="Helvetica,sans-Serif" font-size="10.00">LwXMLP_ENCODING.c</text>
</a>
</g>
</g>
<!-- Node1&#45;&gt;Node3 -->
<g id="edge2" class="edge">
<title>Node1&#45;&gt;Node3</title>
<path fill="none" stroke="midnightblue" d="M74.02,-157.8C74.02,-148.91 74.02,-138.78 74.02,-131.75"/>
<polygon fill="midnightblue" stroke="midnightblue" points="70.52,-158.08 74.02,-168.08 77.52,-158.08 70.52,-158.08"/>
</g>
<!-- Node4 -->
<g id="node4" class="node">
<title>Node4</title>
<g id="a_node4"><a xlink:href="_lw_x_m_l_p___p_r_i_v_a_t_e___t_y_p_e_s_8h.html" target="_top" xlink:title="This header file contain all the private types definitions for the LwXMLP_CORE which will be converte...">
<polygon fill="white" stroke="black" points="154.02,-112.5 154.02,-131.5 300.02,-131.5 300.02,-112.5 154.02,-112.5"/>
<text text-anchor="middle" x="227.02" y="-119.5" font-family="Helvetica,sans-Serif" font-size="10.00">LwXMLP_PRIVATE_TYPES.h</text>
</a>
</g>
</g>
<!-- Node1&#45;&gt;Node4 -->
<g id="edge3" class="edge">
<title>Node1&#45;&gt;Node4</title>
<path fill="none" stroke="midnightblue" d="M107.91,-165.04C136.7,-154.88 177.31,-140.55 202.89,-131.52"/>
<polygon fill="midnightblue" stroke="midnightblue" points="106.53,-161.81 98.27,-168.44 108.86,-168.42 106.53,-161.81"/>
</g>
<!-- Node4&#45;&gt;Node2 -->
<g id="edge4" class="edge">
<title>Node4&#45;&gt;Node2</title>
<path fill="none" stroke="midnightblue" d="M202.46,-107.01C190.81,-99.24 177.59,-88.59 169.02,-76 156.98,-58.31 152.46,-32.92 150.85,-19.72"/>
<polygon fill="midnightblue" stroke="midnightblue" points="200.63,-109.99 210.96,-112.37 204.37,-104.07 200.63,-109.99"/>
</g>
<!-- Node5 -->
<g id="node5" class="node">
<title>Node5</title>
<g id="a_node5"><a xlink:href="_lw_x_m_l_p___c_o_r_e_8h.html" target="_top" xlink:title="This header file contain all the global definitions for the LwXMLP_CORE.">
<polygon fill="white" stroke="black" points="178.02,-56.5 178.02,-75.5 276.02,-75.5 276.02,-56.5 178.02,-56.5"/>
<text text-anchor="middle" x="227.02" y="-63.5" font-family="Helvetica,sans-Serif" font-size="10.00">LwXMLP_CORE.h</text>
</a>
</g>
</g>
<!-- Node4&#45;&gt;Node5 -->
<g id="edge5" class="edge">
<title>Node4&#45;&gt;Node5</title>
<path fill="none" stroke="midnightblue" d="M227.02,-101.8C227.02,-92.91 227.02,-82.78 227.02,-75.75"/>
<polygon fill="midnightblue" stroke="midnightblue" points="223.52,-102.08 227.02,-112.08 230.52,-102.08 223.52,-102.08"/>
</g>
<!-- Node5&#45;&gt;Node2 -->
<g id="edge6" class="edge">
<title>Node5&#45;&gt;Node2</title>
<path fill="none" stroke="midnightblue" d="M206.12,-50.34C192.11,-40.52 174.14,-27.91 162.36,-19.65"/>
<polygon fill="midnightblue" stroke="midnightblue" points="204.45,-53.45 214.65,-56.32 208.47,-47.72 204.45,-53.45"/>
</g>
</g>
</svg>
