<?xml version="1.0" encoding="UTF-8" standalone="no"?>
<!DOCTYPE svg PUBLIC "-//W3C//DTD SVG 1.1//EN"
 "http://www.w3.org/Graphics/SVG/1.1/DTD/svg11.dtd">
<!-- Generated by graphviz version 2.43.0 (0)
 -->
<!-- Title: LwXMLP_ENCODING.c Pages: 1 -->
<svg width="291pt" height="140pt"
 viewBox="0.00 0.00 290.50 140.00" xmlns="http://www.w3.org/2000/svg" xmlns:xlink="http://www.w3.org/1999/xlink">
<g id="graph0" class="graph" transform="scale(1 1) rotate(0) translate(4 136)">
<title>LwXMLP_ENCODING.c</title>
<polygon fill="white" stroke="transparent" points="-4,4 -4,-136 286.5,-136 286.5,4 -4,4"/>
<!-- Node1 -->
<g id="node1" class="node">
<title>Node1</title>
<g id="a_node1"><a xlink:title="This is a source code file for the different encoding schemes.">
<polygon fill="#bfbfbf" stroke="black" points="119,-112.5 119,-131.5 243,-131.5 243,-112.5 119,-112.5"/>
<text text-anchor="middle" x="181" y="-119.5" font-family="Helvetica,sans-Serif" font-size="10.00">LwXMLP_ENCODING.c</text>
</a>
</g>
</g>
<!-- Node2 -->
<g id="node2" class="node">
<title>Node2</title>
<g id="a_node2"><a xlink:href="_lw_x_m_l_p___e_n_c_o_d_i_n_g_8h.html" target="_top" xlink:title="This header file contain all the global definitions for the LwXMLP_ENCODING.">
<polygon fill="white" stroke="black" points="65.5,-56.5 65.5,-75.5 190.5,-75.5 190.5,-56.5 65.5,-56.5"/>
<text text-anchor="middle" x="128" y="-63.5" font-family="Helvetica,sans-Serif" font-size="10.00">LwXMLP_ENCODING.h</text>
</a>
</g>
</g>
<!-- Node1&#45;&gt;Node2 -->
<g id="edge1" class="edge">
<title>Node1&#45;&gt;Node2</title>
<path fill="none" stroke="midnightblue" d="M172.25,-112.08C164.53,-104.22 153.1,-92.57 143.78,-83.08"/>
<polygon fill="midnightblue" stroke="midnightblue" points="146.09,-80.44 136.59,-75.75 141.1,-85.34 146.09,-80.44"/>
</g>
<!-- Node6 -->
<g id="node6" class="node">
<title>Node6</title>
<g id="a_node6"><a xlink:title=" ">
<polygon fill="white" stroke="#bfbfbf" points="208.5,-56.5 208.5,-75.5 261.5,-75.5 261.5,-56.5 208.5,-56.5"/>
<text text-anchor="middle" x="235" y="-63.5" font-family="Helvetica,sans-Serif" font-size="10.00">string.h</text>
</a>
</g>
</g>
<!-- Node1&#45;&gt;Node6 -->
<g id="edge5" class="edge">
<title>Node1&#45;&gt;Node6</title>
<path fill="none" stroke="midnightblue" d="M189.92,-112.08C197.78,-104.22 209.43,-92.57 218.92,-83.08"/>
<polygon fill="midnightblue" stroke="midnightblue" points="221.65,-85.3 226.25,-75.75 216.7,-80.35 221.65,-85.3"/>
</g>
<!-- Node3 -->
<g id="node3" class="node">
<title>Node3</title>
<g id="a_node3"><a xlink:href="_s_t_d___t_y_p_e_8h.html" target="_top" xlink:title="This file contains the redefinition for the standard types.">
<polygon fill="white" stroke="black" points="0,-0.5 0,-19.5 74,-19.5 74,-0.5 0,-0.5"/>
<text text-anchor="middle" x="37" y="-7.5" font-family="Helvetica,sans-Serif" font-size="10.00">STD_TYPE.h</text>
</a>
</g>
</g>
<!-- Node2&#45;&gt;Node3 -->
<g id="edge2" class="edge">
<title>Node2&#45;&gt;Node3</title>
<path fill="none" stroke="midnightblue" d="M113.38,-56.32C99.05,-47.82 76.99,-34.73 60.25,-24.8"/>
<polygon fill="midnightblue" stroke="midnightblue" points="61.97,-21.75 51.58,-19.65 58.4,-27.77 61.97,-21.75"/>
</g>
<!-- Node4 -->
<g id="node4" class="node">
<title>Node4</title>
<g id="a_node4"><a xlink:href="_verbose_8h.html" target="_top" xlink:title="This is the header file which define the verbose function and the verbose levels.">
<polygon fill="white" stroke="black" points="92.5,-0.5 92.5,-19.5 163.5,-19.5 163.5,-0.5 92.5,-0.5"/>
<text text-anchor="middle" x="128" y="-7.5" font-family="Helvetica,sans-Serif" font-size="10.00">VERBOSE.h</text>
</a>
</g>
</g>
<!-- Node2&#45;&gt;Node4 -->
<g id="edge3" class="edge">
<title>Node2&#45;&gt;Node4</title>
<path fill="none" stroke="midnightblue" d="M128,-56.08C128,-49.01 128,-38.86 128,-29.99"/>
<polygon fill="midnightblue" stroke="midnightblue" points="131.5,-29.75 128,-19.75 124.5,-29.75 131.5,-29.75"/>
</g>
<!-- Node5 -->
<g id="node5" class="node">
<title>Node5</title>
<g id="a_node5"><a xlink:href="_lw_x_m_l_p___t_y_p_e_s_8h.html" target="_top" xlink:title="This is the header file contain the global data types.">
<polygon fill="white" stroke="black" points="181.5,-0.5 181.5,-19.5 282.5,-19.5 282.5,-0.5 181.5,-0.5"/>
<text text-anchor="middle" x="232" y="-7.5" font-family="Helvetica,sans-Serif" font-size="10.00">LwXMLP_TYPES.h</text>
</a>
</g>
</g>
<!-- Node2&#45;&gt;Node5 -->
<g id="edge4" class="edge">
<title>Node2&#45;&gt;Node5</title>
<path fill="none" stroke="midnightblue" d="M144.71,-56.32C161.31,-47.7 187,-34.36 206.22,-24.39"/>
<polygon fill="midnightblue" stroke="midnightblue" points="208.07,-27.37 215.33,-19.65 204.84,-21.16 208.07,-27.37"/>
</g>
</g>
</svg>
