<?xml version="1.0" encoding="UTF-8" standalone="no"?>
<!DOCTYPE svg PUBLIC "-//W3C//DTD SVG 1.1//EN"
 "http://www.w3.org/Graphics/SVG/1.1/DTD/svg11.dtd">
<!-- Generated by graphviz version 2.43.0 (0)
 -->
<!-- Title: LwXMLP_PRIVATE_TYPES.h Pages: 1 -->
<svg width="342pt" height="140pt"
 viewBox="0.00 0.00 341.50 140.00" xmlns="http://www.w3.org/2000/svg" xmlns:xlink="http://www.w3.org/1999/xlink">
<g id="graph0" class="graph" transform="scale(1 1) rotate(0) translate(4 136)">
<title>LwXMLP_PRIVATE_TYPES.h</title>
<polygon fill="white" stroke="transparent" points="-4,4 -4,-136 337.5,-136 337.5,4 -4,4"/>
<!-- Node1 -->
<g id="node1" class="node">
<title>Node1</title>
<g id="a_node1"><a xlink:title="This header file contain all the private types definitions for the LwXMLP_CORE which will be converte...">
<polygon fill="#bfbfbf" stroke="black" points="41,-112.5 41,-131.5 187,-131.5 187,-112.5 41,-112.5"/>
<text text-anchor="middle" x="114" y="-119.5" font-family="Helvetica,sans-Serif" font-size="10.00">LwXMLP_PRIVATE_TYPES.h</text>
</a>
</g>
</g>
<!-- Node2 -->
<g id="node2" class="node">
<title>Node2</title>
<g id="a_node2"><a xlink:href="_lw_x_m_l_p___f_c_f_g_8h.html" target="_top" xlink:title="This is the header file of the LwXMLP_CORE fixed configuration which contain all macros which control...">
<polygon fill="white" stroke="black" points="0,-56.5 0,-75.5 98,-75.5 98,-56.5 0,-56.5"/>
<text text-anchor="middle" x="49" y="-63.5" font-family="Helvetica,sans-Serif" font-size="10.00">LwXMLP_FCFG.h</text>
</a>
</g>
</g>
<!-- Node1&#45;&gt;Node2 -->
<g id="edge1" class="edge">
<title>Node1&#45;&gt;Node2</title>
<path fill="none" stroke="midnightblue" d="M103.56,-112.32C93.85,-104.26 79.18,-92.08 67.5,-82.37"/>
<polygon fill="midnightblue" stroke="midnightblue" points="69.56,-79.53 59.63,-75.83 65.09,-84.92 69.56,-79.53"/>
</g>
<!-- Node3 -->
<g id="node3" class="node">
<title>Node3</title>
<g id="a_node3"><a xlink:href="_lw_x_m_l_p___e_n_c_o_d_i_n_g_8h.html" target="_top" xlink:title="This header file contain all the global definitions for the LwXMLP_ENCODING.">
<polygon fill="white" stroke="black" points="116.5,-56.5 116.5,-75.5 241.5,-75.5 241.5,-56.5 116.5,-56.5"/>
<text text-anchor="middle" x="179" y="-63.5" font-family="Helvetica,sans-Serif" font-size="10.00">LwXMLP_ENCODING.h</text>
</a>
</g>
</g>
<!-- Node1&#45;&gt;Node3 -->
<g id="edge2" class="edge">
<title>Node1&#45;&gt;Node3</title>
<path fill="none" stroke="midnightblue" d="M124.44,-112.32C134.15,-104.26 148.82,-92.08 160.5,-82.37"/>
<polygon fill="midnightblue" stroke="midnightblue" points="162.91,-84.92 168.37,-75.83 158.44,-79.53 162.91,-84.92"/>
</g>
<!-- Node4 -->
<g id="node4" class="node">
<title>Node4</title>
<g id="a_node4"><a xlink:href="_s_t_d___t_y_p_e_8h.html" target="_top" xlink:title="This file contains the redefinition for the standard types.">
<polygon fill="white" stroke="black" points="51,-0.5 51,-19.5 125,-19.5 125,-0.5 51,-0.5"/>
<text text-anchor="middle" x="88" y="-7.5" font-family="Helvetica,sans-Serif" font-size="10.00">STD_TYPE.h</text>
</a>
</g>
</g>
<!-- Node3&#45;&gt;Node4 -->
<g id="edge3" class="edge">
<title>Node3&#45;&gt;Node4</title>
<path fill="none" stroke="midnightblue" d="M164.38,-56.32C150.05,-47.82 127.99,-34.73 111.25,-24.8"/>
<polygon fill="midnightblue" stroke="midnightblue" points="112.97,-21.75 102.58,-19.65 109.4,-27.77 112.97,-21.75"/>
</g>
<!-- Node5 -->
<g id="node5" class="node">
<title>Node5</title>
<g id="a_node5"><a xlink:href="_verbose_8h.html" target="_top" xlink:title="This is the header file which define the verbose function and the verbose levels.">
<polygon fill="white" stroke="black" points="143.5,-0.5 143.5,-19.5 214.5,-19.5 214.5,-0.5 143.5,-0.5"/>
<text text-anchor="middle" x="179" y="-7.5" font-family="Helvetica,sans-Serif" font-size="10.00">VERBOSE.h</text>
</a>
</g>
</g>
<!-- Node3&#45;&gt;Node5 -->
<g id="edge4" class="edge">
<title>Node3&#45;&gt;Node5</title>
<path fill="none" stroke="midnightblue" d="M179,-56.08C179,-49.01 179,-38.86 179,-29.99"/>
<polygon fill="midnightblue" stroke="midnightblue" points="182.5,-29.75 179,-19.75 175.5,-29.75 182.5,-29.75"/>
</g>
<!-- Node6 -->
<g id="node6" class="node">
<title>Node6</title>
<g id="a_node6"><a xlink:href="_lw_x_m_l_p___t_y_p_e_s_8h.html" target="_top" xlink:title="This is the header file contain the global data types.">
<polygon fill="white" stroke="black" points="232.5,-0.5 232.5,-19.5 333.5,-19.5 333.5,-0.5 232.5,-0.5"/>
<text text-anchor="middle" x="283" y="-7.5" font-family="Helvetica,sans-Serif" font-size="10.00">LwXMLP_TYPES.h</text>
</a>
</g>
</g>
<!-- Node3&#45;&gt;Node6 -->
<g id="edge5" class="edge">
<title>Node3&#45;&gt;Node6</title>
<path fill="none" stroke="midnightblue" d="M195.71,-56.32C212.31,-47.7 238,-34.36 257.22,-24.39"/>
<polygon fill="midnightblue" stroke="midnightblue" points="259.07,-27.37 266.33,-19.65 255.84,-21.16 259.07,-27.37"/>
</g>
</g>
</svg>
