<?xml version="1.0" encoding="UTF-8" standalone="no"?>
<!DOCTYPE svg PUBLIC "-//W3C//DTD SVG 1.1//EN"
 "http://www.w3.org/Graphics/SVG/1.1/DTD/svg11.dtd">
<!-- Generated by graphviz version 2.43.0 (0)
 -->
<!-- Title: LwXMLP_FCFG.h Pages: 1 -->
<svg width="207pt" height="196pt"
 viewBox="0.00 0.00 207.00 196.00" xmlns="http://www.w3.org/2000/svg" xmlns:xlink="http://www.w3.org/1999/xlink">
<g id="graph0" class="graph" transform="scale(1 1) rotate(0) translate(4 192)">
<title>LwXMLP_FCFG.h</title>
<polygon fill="white" stroke="transparent" points="-4,4 -4,-192 203,-192 203,4 -4,4"/>
<!-- Node1 -->
<g id="node1" class="node">
<title>Node1</title>
<g id="a_node1"><a xlink:title="This is the header file of the LwXMLP_CORE fixed configuration which contain all macros which control...">
<polygon fill="#bfbfbf" stroke="black" points="26,-168.5 26,-187.5 124,-187.5 124,-168.5 26,-168.5"/>
<text text-anchor="middle" x="75" y="-175.5" font-family="Helvetica,sans-Serif" font-size="10.00">LwXMLP_FCFG.h</text>
</a>
</g>
</g>
<!-- Node2 -->
<g id="node2" class="node">
<title>Node2</title>
<g id="a_node2"><a xlink:href="_lw_x_m_l_p___c_o_r_e_8h.html" target="_top" xlink:title="This header file contain all the global definitions for the LwXMLP_CORE.">
<polygon fill="white" stroke="black" points="0,-56.5 0,-75.5 98,-75.5 98,-56.5 0,-56.5"/>
<text text-anchor="middle" x="49" y="-63.5" font-family="Helvetica,sans-Serif" font-size="10.00">LwXMLP_CORE.h</text>
</a>
</g>
</g>
<!-- Node1&#45;&gt;Node2 -->
<g id="edge1" class="edge">
<title>Node1&#45;&gt;Node2</title>
<path fill="none" stroke="midnightblue" d="M60.02,-160.47C53.78,-152.48 47.23,-142.38 44,-132 37.95,-112.55 42.88,-88.31 46.34,-75.64"/>
<polygon fill="midnightblue" stroke="midnightblue" points="57.42,-162.81 66.52,-168.23 62.79,-158.32 57.42,-162.81"/>
</g>
<!-- Node4 -->
<g id="node4" class="node">
<title>Node4</title>
<g id="a_node4"><a xlink:href="_lw_x_m_l_p___p_r_i_v_a_t_e___t_y_p_e_s_8h.html" target="_top" xlink:title="This header file contain all the private types definitions for the LwXMLP_CORE which will be converte...">
<polygon fill="white" stroke="black" points="53,-112.5 53,-131.5 199,-131.5 199,-112.5 53,-112.5"/>
<text text-anchor="middle" x="126" y="-119.5" font-family="Helvetica,sans-Serif" font-size="10.00">LwXMLP_PRIVATE_TYPES.h</text>
</a>
</g>
</g>
<!-- Node1&#45;&gt;Node4 -->
<g id="edge3" class="edge">
<title>Node1&#45;&gt;Node4</title>
<path fill="none" stroke="midnightblue" d="M90.38,-160.72C99.37,-151.2 110.36,-139.56 117.74,-131.75"/>
<polygon fill="midnightblue" stroke="midnightblue" points="87.74,-158.41 83.42,-168.08 92.83,-163.22 87.74,-158.41"/>
</g>
<!-- Node3 -->
<g id="node3" class="node">
<title>Node3</title>
<g id="a_node3"><a xlink:href="_lw_x_m_l_p___c_o_r_e_8c.html" target="_top" xlink:title="This is a source code file for the LwXMLP module which contain all the core API.">
<polygon fill="white" stroke="black" points="38,-0.5 38,-19.5 136,-19.5 136,-0.5 38,-0.5"/>
<text text-anchor="middle" x="87" y="-7.5" font-family="Helvetica,sans-Serif" font-size="10.00">LwXMLP_CORE.c</text>
</a>
</g>
</g>
<!-- Node2&#45;&gt;Node3 -->
<g id="edge2" class="edge">
<title>Node2&#45;&gt;Node3</title>
<path fill="none" stroke="midnightblue" d="M61.06,-47.86C67.64,-38.5 75.51,-27.33 80.84,-19.75"/>
<polygon fill="midnightblue" stroke="midnightblue" points="58.17,-45.89 55.27,-56.08 63.89,-49.92 58.17,-45.89"/>
</g>
<!-- Node4&#45;&gt;Node2 -->
<g id="edge5" class="edge">
<title>Node4&#45;&gt;Node2</title>
<path fill="none" stroke="midnightblue" d="M105.1,-106.34C91.09,-96.52 73.12,-83.91 61.34,-75.65"/>
<polygon fill="midnightblue" stroke="midnightblue" points="103.43,-109.45 113.63,-112.32 107.45,-103.72 103.43,-109.45"/>
</g>
<!-- Node4&#45;&gt;Node3 -->
<g id="edge4" class="edge">
<title>Node4&#45;&gt;Node3</title>
<path fill="none" stroke="midnightblue" d="M121.37,-102.75C117.86,-89.61 112.69,-71.52 107,-56 102.29,-43.16 95.66,-28.79 91.34,-19.82"/>
<polygon fill="midnightblue" stroke="midnightblue" points="117.99,-103.67 123.9,-112.47 124.77,-101.91 117.99,-103.67"/>
</g>
</g>
</svg>
