<?xml version="1.0" encoding="UTF-8" standalone="no"?>
<!DOCTYPE svg PUBLIC "-//W3C//DTD SVG 1.1//EN"
 "http://www.w3.org/Graphics/SVG/1.1/DTD/svg11.dtd">
<!-- Generated by graphviz version 2.43.0 (0)
 -->
<!-- Title: STD_TYPE.h Pages: 1 -->
<svg width="334pt" height="252pt"
 viewBox="0.00 0.00 333.70 252.00" xmlns="http://www.w3.org/2000/svg" xmlns:xlink="http://www.w3.org/1999/xlink">
<g id="graph0" class="graph" transform="scale(1 1) rotate(0) translate(4 248)">
<title>STD_TYPE.h</title>
<polygon fill="white" stroke="transparent" points="-4,4 -4,-248 329.7,-248 329.7,4 -4,4"/>
<!-- Node1 -->
<g id="node1" class="node">
<title>Node1</title>
<g id="a_node1"><a xlink:title="This file contains the redefinition for the standard types.">
<polygon fill="#bfbfbf" stroke="black" points="0,-224.5 0,-243.5 74,-243.5 74,-224.5 0,-224.5"/>
<text text-anchor="middle" x="37" y="-231.5" font-family="Helvetica,sans-Serif" font-size="10.00">STD_TYPE.h</text>
</a>
</g>
</g>
<!-- Node2 -->
<g id="node2" class="node">
<title>Node2</title>
<g id="a_node2"><a xlink:href="_lw_x_m_l_p___c_o_r_e_8h.html" target="_top" xlink:title="This header file contain all the global definitions for the LwXMLP_CORE.">
<polygon fill="white" stroke="black" points="140,-56.5 140,-75.5 238,-75.5 238,-56.5 140,-56.5"/>
<text text-anchor="middle" x="189" y="-63.5" font-family="Helvetica,sans-Serif" font-size="10.00">LwXMLP_CORE.h</text>
</a>
</g>
</g>
<!-- Node1&#45;&gt;Node2 -->
<g id="edge1" class="edge">
<title>Node1&#45;&gt;Node2</title>
<path fill="none" stroke="midnightblue" d="M25.43,-215.78C9.97,-190.41 -12.88,-142.67 11,-112 26.72,-91.82 92.69,-79.25 139.73,-72.69"/>
<polygon fill="midnightblue" stroke="midnightblue" points="22.56,-217.78 30.88,-224.33 28.46,-214.02 22.56,-217.78"/>
</g>
<!-- Node4 -->
<g id="node4" class="node">
<title>Node4</title>
<g id="a_node4"><a xlink:href="_lw_x_m_l_p___e_n_c_o_d_i_n_g_8h.html" target="_top" xlink:title="This header file contain all the global definitions for the LwXMLP_ENCODING.">
<polygon fill="white" stroke="black" points="96.5,-168.5 96.5,-187.5 221.5,-187.5 221.5,-168.5 96.5,-168.5"/>
<text text-anchor="middle" x="159" y="-175.5" font-family="Helvetica,sans-Serif" font-size="10.00">LwXMLP_ENCODING.h</text>
</a>
</g>
</g>
<!-- Node1&#45;&gt;Node4 -->
<g id="edge3" class="edge">
<title>Node1&#45;&gt;Node4</title>
<path fill="none" stroke="midnightblue" d="M65.54,-220.37C88.39,-210.26 119.81,-196.35 139.76,-187.52"/>
<polygon fill="midnightblue" stroke="midnightblue" points="64.06,-217.2 56.33,-224.44 66.89,-223.6 64.06,-217.2"/>
</g>
<!-- Node3 -->
<g id="node3" class="node">
<title>Node3</title>
<g id="a_node3"><a xlink:href="_lw_x_m_l_p___c_o_r_e_8c.html" target="_top" xlink:title="This is a source code file for the LwXMLP module which contain all the core API.">
<polygon fill="white" stroke="black" points="217,-0.5 217,-19.5 315,-19.5 315,-0.5 217,-0.5"/>
<text text-anchor="middle" x="266" y="-7.5" font-family="Helvetica,sans-Serif" font-size="10.00">LwXMLP_CORE.c</text>
</a>
</g>
</g>
<!-- Node2&#45;&gt;Node3 -->
<g id="edge2" class="edge">
<title>Node2&#45;&gt;Node3</title>
<path fill="none" stroke="midnightblue" d="M209.9,-50.34C223.91,-40.52 241.88,-27.91 253.66,-19.65"/>
<polygon fill="midnightblue" stroke="midnightblue" points="207.55,-47.72 201.37,-56.32 211.57,-53.45 207.55,-47.72"/>
</g>
<!-- Node4&#45;&gt;Node3 -->
<g id="edge4" class="edge">
<title>Node4&#45;&gt;Node3</title>
<path fill="none" stroke="midnightblue" d="M224.19,-166.55C262.43,-158.95 305.44,-147.31 317,-132 344.88,-95.07 296.48,-40.62 275.24,-19.66"/>
<polygon fill="midnightblue" stroke="midnightblue" points="223.24,-163.17 214.08,-168.5 224.56,-170.05 223.24,-163.17"/>
</g>
<!-- Node5 -->
<g id="node5" class="node">
<title>Node5</title>
<g id="a_node5"><a xlink:href="_lw_x_m_l_p___e_n_c_o_d_i_n_g_8c.html" target="_top" xlink:title="This is a source code file for the different encoding schemes.">
<polygon fill="white" stroke="black" points="20,-112.5 20,-131.5 144,-131.5 144,-112.5 20,-112.5"/>
<text text-anchor="middle" x="82" y="-119.5" font-family="Helvetica,sans-Serif" font-size="10.00">LwXMLP_ENCODING.c</text>
</a>
</g>
</g>
<!-- Node4&#45;&gt;Node5 -->
<g id="edge5" class="edge">
<title>Node4&#45;&gt;Node5</title>
<path fill="none" stroke="midnightblue" d="M138.1,-162.34C124.09,-152.52 106.12,-139.91 94.34,-131.65"/>
<polygon fill="midnightblue" stroke="midnightblue" points="136.43,-165.45 146.63,-168.32 140.45,-159.72 136.43,-165.45"/>
</g>
<!-- Node6 -->
<g id="node6" class="node">
<title>Node6</title>
<g id="a_node6"><a xlink:href="_lw_x_m_l_p___p_r_i_v_a_t_e___t_y_p_e_s_8h.html" target="_top" xlink:title="This header file contain all the private types definitions for the LwXMLP_CORE which will be converte...">
<polygon fill="white" stroke="black" points="162,-112.5 162,-131.5 308,-131.5 308,-112.5 162,-112.5"/>
<text text-anchor="middle" x="235" y="-119.5" font-family="Helvetica,sans-Serif" font-size="10.00">LwXMLP_PRIVATE_TYPES.h</text>
</a>
</g>
</g>
<!-- Node4&#45;&gt;Node6 -->
<g id="edge6" class="edge">
<title>Node4&#45;&gt;Node6</title>
<path fill="none" stroke="midnightblue" d="M179.58,-162.38C193.31,-152.62 210.93,-140.11 222.57,-131.83"/>
<polygon fill="midnightblue" stroke="midnightblue" points="177.34,-159.68 171.21,-168.32 181.39,-165.38 177.34,-159.68"/>
</g>
<!-- Node6&#45;&gt;Node2 -->
<g id="edge8" class="edge">
<title>Node6&#45;&gt;Node2</title>
<path fill="none" stroke="midnightblue" d="M220.89,-104.43C212.82,-94.97 203.04,-83.48 196.45,-75.75"/>
<polygon fill="midnightblue" stroke="midnightblue" points="218.25,-106.74 227.4,-112.08 223.58,-102.2 218.25,-106.74"/>
</g>
<!-- Node6&#45;&gt;Node3 -->
<g id="edge7" class="edge">
<title>Node6&#45;&gt;Node3</title>
<path fill="none" stroke="midnightblue" d="M240.16,-102.67C246.94,-78.62 258.56,-37.39 263.58,-19.59"/>
<polygon fill="midnightblue" stroke="midnightblue" points="236.78,-101.79 237.43,-112.37 243.51,-103.69 236.78,-101.79"/>
</g>
</g>
</svg>
