<?xml version="1.0" encoding="UTF-8" standalone="no"?>
<!DOCTYPE svg PUBLIC "-//W3C//DTD SVG 1.1//EN"
 "http://www.w3.org/Graphics/SVG/1.1/DTD/svg11.dtd">
<!-- Generated by graphviz version 2.43.0 (0)
 -->
<!-- Title: Verbose.h Pages: 1 -->
<svg width="334pt" height="252pt"
 viewBox="0.00 0.00 333.67 252.00" xmlns="http://www.w3.org/2000/svg" xmlns:xlink="http://www.w3.org/1999/xlink">
<g id="graph0" class="graph" transform="scale(1 1) rotate(0) translate(4 248)">
<title>Verbose.h</title>
<polygon fill="white" stroke="transparent" points="-4,4 -4,-248 329.67,-248 329.67,4 -4,4"/>
<!-- Node1 -->
<g id="node1" class="node">
<title>Node1</title>
<g id="a_node1"><a xlink:title="This is the header file which define the verbose function and the verbose levels.">
<polygon fill="#bfbfbf" stroke="black" points="4.47,-224.5 4.47,-243.5 69.47,-243.5 69.47,-224.5 4.47,-224.5"/>
<text text-anchor="middle" x="36.97" y="-231.5" font-family="Helvetica,sans-Serif" font-size="10.00">Verbose.h</text>
</a>
</g>
</g>
<!-- Node2 -->
<g id="node2" class="node">
<title>Node2</title>
<g id="a_node2"><a xlink:href="_lw_x_m_l_p___c_o_r_e_8h.html" target="_top" xlink:title="This header file contain all the global definitions for the LwXMLP_CORE.">
<polygon fill="white" stroke="black" points="139.97,-56.5 139.97,-75.5 237.97,-75.5 237.97,-56.5 139.97,-56.5"/>
<text text-anchor="middle" x="188.97" y="-63.5" font-family="Helvetica,sans-Serif" font-size="10.00">LwXMLP_CORE.h</text>
</a>
</g>
</g>
<!-- Node1&#45;&gt;Node2 -->
<g id="edge1" class="edge">
<title>Node1&#45;&gt;Node2</title>
<path fill="none" stroke="midnightblue" d="M25.4,-215.78C9.94,-190.41 -12.91,-142.67 10.97,-112 26.68,-91.82 92.66,-79.25 139.7,-72.69"/>
<polygon fill="midnightblue" stroke="midnightblue" points="22.52,-217.78 30.85,-224.33 28.43,-214.02 22.52,-217.78"/>
</g>
<!-- Node4 -->
<g id="node4" class="node">
<title>Node4</title>
<g id="a_node4"><a xlink:href="_lw_x_m_l_p___e_n_c_o_d_i_n_g_8h.html" target="_top" xlink:title="This header file contain all the global definitions for the LwXMLP_ENCODING.">
<polygon fill="white" stroke="black" points="96.47,-168.5 96.47,-187.5 221.47,-187.5 221.47,-168.5 96.47,-168.5"/>
<text text-anchor="middle" x="158.97" y="-175.5" font-family="Helvetica,sans-Serif" font-size="10.00">LwXMLP_ENCODING.h</text>
</a>
</g>
</g>
<!-- Node1&#45;&gt;Node4 -->
<g id="edge3" class="edge">
<title>Node1&#45;&gt;Node4</title>
<path fill="none" stroke="midnightblue" d="M65.51,-220.37C88.35,-210.26 119.77,-196.35 139.73,-187.52"/>
<polygon fill="midnightblue" stroke="midnightblue" points="64.03,-217.2 56.3,-224.44 66.86,-223.6 64.03,-217.2"/>
</g>
<!-- Node3 -->
<g id="node3" class="node">
<title>Node3</title>
<g id="a_node3"><a xlink:href="_lw_x_m_l_p___c_o_r_e_8c.html" target="_top" xlink:title="This is a source code file for the LwXMLP module which contain all the core API.">
<polygon fill="white" stroke="black" points="216.97,-0.5 216.97,-19.5 314.97,-19.5 314.97,-0.5 216.97,-0.5"/>
<text text-anchor="middle" x="265.97" y="-7.5" font-family="Helvetica,sans-Serif" font-size="10.00">LwXMLP_CORE.c</text>
</a>
</g>
</g>
<!-- Node2&#45;&gt;Node3 -->
<g id="edge2" class="edge">
<title>Node2&#45;&gt;Node3</title>
<path fill="none" stroke="midnightblue" d="M209.87,-50.34C223.88,-40.52 241.85,-27.91 253.63,-19.65"/>
<polygon fill="midnightblue" stroke="midnightblue" points="207.52,-47.72 201.34,-56.32 211.54,-53.45 207.52,-47.72"/>
</g>
<!-- Node4&#45;&gt;Node3 -->
<g id="edge4" class="edge">
<title>Node4&#45;&gt;Node3</title>
<path fill="none" stroke="midnightblue" d="M224.16,-166.55C262.4,-158.95 305.41,-147.31 316.97,-132 344.85,-95.07 296.44,-40.62 275.21,-19.66"/>
<polygon fill="midnightblue" stroke="midnightblue" points="223.21,-163.17 214.05,-168.5 224.53,-170.05 223.21,-163.17"/>
</g>
<!-- Node5 -->
<g id="node5" class="node">
<title>Node5</title>
<g id="a_node5"><a xlink:href="_lw_x_m_l_p___e_n_c_o_d_i_n_g_8c.html" target="_top" xlink:title="This is a source code file for the different encoding schemes.">
<polygon fill="white" stroke="black" points="19.97,-112.5 19.97,-131.5 143.97,-131.5 143.97,-112.5 19.97,-112.5"/>
<text text-anchor="middle" x="81.97" y="-119.5" font-family="Helvetica,sans-Serif" font-size="10.00">LwXMLP_ENCODING.c</text>
</a>
</g>
</g>
<!-- Node4&#45;&gt;Node5 -->
<g id="edge5" class="edge">
<title>Node4&#45;&gt;Node5</title>
<path fill="none" stroke="midnightblue" d="M138.07,-162.34C124.06,-152.52 106.08,-139.91 94.31,-131.65"/>
<polygon fill="midnightblue" stroke="midnightblue" points="136.4,-165.45 146.6,-168.32 140.42,-159.72 136.4,-165.45"/>
</g>
<!-- Node6 -->
<g id="node6" class="node">
<title>Node6</title>
<g id="a_node6"><a xlink:href="_lw_x_m_l_p___p_r_i_v_a_t_e___t_y_p_e_s_8h.html" target="_top" xlink:title="This header file contain all the private types definitions for the LwXMLP_CORE which will be converte...">
<polygon fill="white" stroke="black" points="161.97,-112.5 161.97,-131.5 307.97,-131.5 307.97,-112.5 161.97,-112.5"/>
<text text-anchor="middle" x="234.97" y="-119.5" font-family="Helvetica,sans-Serif" font-size="10.00">LwXMLP_PRIVATE_TYPES.h</text>
</a>
</g>
</g>
<!-- Node4&#45;&gt;Node6 -->
<g id="edge6" class="edge">
<title>Node4&#45;&gt;Node6</title>
<path fill="none" stroke="midnightblue" d="M179.54,-162.38C193.28,-152.62 210.89,-140.11 222.53,-131.83"/>
<polygon fill="midnightblue" stroke="midnightblue" points="177.3,-159.68 171.18,-168.32 181.36,-165.38 177.3,-159.68"/>
</g>
<!-- Node6&#45;&gt;Node2 -->
<g id="edge8" class="edge">
<title>Node6&#45;&gt;Node2</title>
<path fill="none" stroke="midnightblue" d="M220.85,-104.43C212.79,-94.97 203.01,-83.48 196.42,-75.75"/>
<polygon fill="midnightblue" stroke="midnightblue" points="218.22,-106.74 227.37,-112.08 223.55,-102.2 218.22,-106.74"/>
</g>
<!-- Node6&#45;&gt;Node3 -->
<g id="edge7" class="edge">
<title>Node6&#45;&gt;Node3</title>
<path fill="none" stroke="midnightblue" d="M240.13,-102.67C246.91,-78.62 258.53,-37.39 263.55,-19.59"/>
<polygon fill="midnightblue" stroke="midnightblue" points="236.74,-101.79 237.4,-112.37 243.48,-103.69 236.74,-101.79"/>
</g>
</g>
</svg>
