<?xml version="1.0" encoding="UTF-8" standalone="no"?>
<!DOCTYPE svg PUBLIC "-//W3C//DTD SVG 1.1//EN"
 "http://www.w3.org/Graphics/SVG/1.1/DTD/svg11.dtd">
<!-- Generated by graphviz version 2.43.0 (0)
 -->
<!-- Title: XML_Parser Pages: 1 -->
<svg width="173pt" height="319pt"
 viewBox="0.00 0.00 173.00 319.00" xmlns="http://www.w3.org/2000/svg" xmlns:xlink="http://www.w3.org/1999/xlink">
<g id="graph0" class="graph" transform="scale(1 1) rotate(0) translate(4 315)">
<title>XML_Parser</title>
<polygon fill="white" stroke="transparent" points="-4,4 -4,-315 169,-315 169,4 -4,4"/>
<g id="clust1" class="cluster">
<title>clusterdir_96e336c3c6e7cff8ac7fc49ddb494e69</title>
<g id="a_clust1"><a xlink:href="dir_96e336c3c6e7cff8ac7fc49ddb494e69.html" target="_top" xlink:title="LwXMLP">
<polygon fill="#edf0f7" stroke="#404040" stroke-dasharray="5,2" points="8,-8 8,-303 157,-303 157,-8 8,-8"/>
<text text-anchor="middle" x="82.5" y="-291" font-family="Helvetica,sans-Serif" font-size="10.00">LwXMLP</text>
</a>
</g>
</g>
<g id="clust2" class="cluster">
<title>clusterdir_8095c46b9976772c7fc6dc946e45dc36</title>
<g id="a_clust2"><a xlink:href="dir_8095c46b9976772c7fc6dc946e45dc36.html" target="_top">
<polygon fill="#edf0f7" stroke="#404040" stroke-width="2" points="16,-80 16,-276 149,-276 149,-80 16,-80"/>
</a>
</g>
</g>
<!-- dir_302a6c1e39f497f2400c4a31eb09d54e -->
<g id="node1" class="node">
<title>dir_302a6c1e39f497f2400c4a31eb09d54e</title>
<g id="a_node1"><a xlink:href="dir_302a6c1e39f497f2400c4a31eb09d54e.html" target="_top" xlink:title="StdType">
<polygon fill="#a2b4d6" stroke="#404040" points="72.5,-52 17.5,-52 17.5,-16 72.5,-16 72.5,-52"/>
<text text-anchor="middle" x="45" y="-31.5" font-family="Helvetica,sans-Serif" font-size="10.00">StdType</text>
</a>
</g>
</g>
<!-- dir_ebd86065482a4d0dafa6096767bfb3e0 -->
<g id="node2" class="node">
<title>dir_ebd86065482a4d0dafa6096767bfb3e0</title>
<g id="a_node2"><a xlink:href="dir_ebd86065482a4d0dafa6096767bfb3e0.html" target="_top" xlink:title="Verbose">
<polygon fill="#a2b4d6" stroke="#404040" points="147,-52 91,-52 91,-16 147,-16 147,-52"/>
<text text-anchor="middle" x="119" y="-31.5" font-family="Helvetica,sans-Serif" font-size="10.00">Verbose</text>
</a>
</g>
</g>
<!-- dir_8095c46b9976772c7fc6dc946e45dc36 -->
<g id="node3" class="node">
<title>dir_8095c46b9976772c7fc6dc946e45dc36</title>
<text text-anchor="middle" x="88" y="-247.5" font-family="Helvetica,sans-Serif" font-size="10.00">XML_Parser</text>
</g>
<!-- dir_1ed9b03147d2a9b083fdecba41e1f286 -->
<g id="node4" class="node">
<title>dir_1ed9b03147d2a9b083fdecba41e1f286</title>
<g id="a_node4"><a xlink:href="dir_1ed9b03147d2a9b083fdecba41e1f286.html" target="_top" xlink:title="Private_Headers">
<polygon fill="#a2b4d6" stroke="#404040" points="120.5,-196 23.5,-196 23.5,-160 120.5,-160 120.5,-196"/>
<text text-anchor="middle" x="72" y="-175.5" font-family="Helvetica,sans-Serif" font-size="10.00">Private_Headers</text>
</a>
</g>
</g>
<!-- dir_8095c46b9976772c7fc6dc946e45dc36&#45;&gt;dir_1ed9b03147d2a9b083fdecba41e1f286 -->
<g id="edge1" class="edge">
<title>dir_8095c46b9976772c7fc6dc946e45dc36&#45;&gt;dir_1ed9b03147d2a9b083fdecba41e1f286</title>
<path fill="none" stroke="black" d="M84.04,-231.7C82.28,-223.98 80.16,-214.71 78.2,-206.11"/>
<polygon fill="black" stroke="black" points="81.55,-205.07 75.91,-196.1 74.73,-206.63 81.55,-205.07"/>
<g id="a_edge1&#45;headlabel"><a xlink:href="dir_000005_000001.html" target="_top" xlink:title="2">
<text text-anchor="middle" x="85.12" y="-205.44" font-family="Helvetica,sans-Serif" font-size="10.00">2</text>
</a>
</g>
</g>
<!-- dir_5972d9f98ba393c5dafcce8430403af1 -->
<g id="node5" class="node">
<title>dir_5972d9f98ba393c5dafcce8430403af1</title>
<g id="a_node5"><a xlink:href="dir_5972d9f98ba393c5dafcce8430403af1.html" target="_top" xlink:title="Public_Headers">
<polygon fill="#a2b4d6" stroke="#404040" points="118,-124 26,-124 26,-88 118,-88 118,-124"/>
<text text-anchor="middle" x="72" y="-103.5" font-family="Helvetica,sans-Serif" font-size="10.00">Public_Headers</text>
</a>
</g>
</g>
<!-- dir_8095c46b9976772c7fc6dc946e45dc36&#45;&gt;dir_5972d9f98ba393c5dafcce8430403af1 -->
<g id="edge2" class="edge">
<title>dir_8095c46b9976772c7fc6dc946e45dc36&#45;&gt;dir_5972d9f98ba393c5dafcce8430403af1</title>
<path fill="none" stroke="black" d="M106.6,-231.76C115.53,-222.2 125.29,-209.53 130,-196 135.26,-180.89 136.45,-174.64 130,-160 125.01,-148.69 116.29,-138.74 107.1,-130.62"/>
<polygon fill="black" stroke="black" points="109.28,-127.88 99.34,-124.23 104.83,-133.28 109.28,-127.88"/>
<g id="a_edge2&#45;headlabel"><a xlink:href="dir_000005_000002.html" target="_top" xlink:title="5">
<text text-anchor="middle" x="113.86" y="-125.48" font-family="Helvetica,sans-Serif" font-size="10.00">5</text>
</a>
</g>
</g>
<!-- dir_1ed9b03147d2a9b083fdecba41e1f286&#45;&gt;dir_5972d9f98ba393c5dafcce8430403af1 -->
<g id="edge3" class="edge">
<title>dir_1ed9b03147d2a9b083fdecba41e1f286&#45;&gt;dir_5972d9f98ba393c5dafcce8430403af1</title>
<path fill="none" stroke="black" d="M66.08,-159.7C65.29,-151.98 65.06,-142.71 65.4,-134.11"/>
<polygon fill="black" stroke="black" points="68.9,-134.32 66.1,-124.1 61.92,-133.84 68.9,-134.32"/>
<g id="a_edge3&#45;headlabel"><a xlink:href="dir_000001_000002.html" target="_top" xlink:title="2">
<text text-anchor="middle" x="71.48" y="-135.61" font-family="Helvetica,sans-Serif" font-size="10.00">2</text>
</a>
</g>
</g>
<!-- dir_5972d9f98ba393c5dafcce8430403af1&#45;&gt;dir_302a6c1e39f497f2400c4a31eb09d54e -->
<g id="edge5" class="edge">
<title>dir_5972d9f98ba393c5dafcce8430403af1&#45;&gt;dir_302a6c1e39f497f2400c4a31eb09d54e</title>
<path fill="none" stroke="black" d="M65.33,-87.7C62.29,-79.81 58.62,-70.3 55.24,-61.55"/>
<polygon fill="black" stroke="black" points="58.46,-60.17 51.6,-52.1 51.93,-62.69 58.46,-60.17"/>
<g id="a_edge5&#45;headlabel"><a xlink:href="dir_000002_000003.html" target="_top" xlink:title="2">
<text text-anchor="middle" x="62.4" y="-60.01" font-family="Helvetica,sans-Serif" font-size="10.00">2</text>
</a>
</g>
</g>
<!-- dir_5972d9f98ba393c5dafcce8430403af1&#45;&gt;dir_ebd86065482a4d0dafa6096767bfb3e0 -->
<g id="edge6" class="edge">
<title>dir_5972d9f98ba393c5dafcce8430403af1&#45;&gt;dir_ebd86065482a4d0dafa6096767bfb3e0</title>
<path fill="none" stroke="black" d="M83.62,-87.7C89.14,-79.47 95.85,-69.48 101.93,-60.42"/>
<polygon fill="black" stroke="black" points="104.85,-62.36 107.52,-52.1 99.04,-58.46 104.85,-62.36"/>
<g id="a_edge6&#45;headlabel"><a xlink:href="dir_000002_000004.html" target="_top" xlink:title="2">
<text text-anchor="middle" x="105.2" y="-64.42" font-family="Helvetica,sans-Serif" font-size="10.00">2</text>
</a>
</g>
</g>
<!-- dir_5972d9f98ba393c5dafcce8430403af1&#45;&gt;dir_1ed9b03147d2a9b083fdecba41e1f286 -->
<g id="edge4" class="edge">
<title>dir_5972d9f98ba393c5dafcce8430403af1&#45;&gt;dir_1ed9b03147d2a9b083fdecba41e1f286</title>
<path fill="none" stroke="black" d="M77.9,-124.1C78.7,-131.79 78.94,-141.05 78.6,-149.67"/>
<polygon fill="black" stroke="black" points="75.11,-149.48 77.92,-159.7 82.09,-149.96 75.11,-149.48"/>
<g id="a_edge4&#45;headlabel"><a xlink:href="dir_000002_000001.html" target="_top" xlink:title="1">
<text text-anchor="middle" x="72.52" y="-143.2" font-family="Helvetica,sans-Serif" font-size="10.00">1</text>
</a>
</g>
</g>
</g>
</svg>
