<?xml version="1.0" encoding="UTF-8" standalone="no"?>
<!DOCTYPE svg PUBLIC "-//W3C//DTD SVG 1.1//EN"
 "http://www.w3.org/Graphics/SVG/1.1/DTD/svg11.dtd">
<!-- Generated by graphviz version 2.43.0 (0)
 -->
<!-- Title: Public_Headers Pages: 1 -->
<svg width="268pt" height="167pt"
 viewBox="0.00 0.00 268.00 167.00" xmlns="http://www.w3.org/2000/svg" xmlns:xlink="http://www.w3.org/1999/xlink">
<g id="graph0" class="graph" transform="scale(1 1) rotate(0) translate(4 163)">
<title>Public_Headers</title>
<polygon fill="white" stroke="transparent" points="-4,4 -4,-163 264,-163 264,4 -4,4"/>
<g id="clust1" class="cluster">
<title>clusterdir_8095c46b9976772c7fc6dc946e45dc36</title>
<g id="a_clust1"><a xlink:href="dir_8095c46b9976772c7fc6dc946e45dc36.html" target="_top" xlink:title="XML_Parser">
<polygon fill="#edf0f7" stroke="#7f7f7f" stroke-dasharray="5,2" points="8,-8 8,-151 120,-151 120,-8 8,-8"/>
<text text-anchor="middle" x="64" y="-139" font-family="Helvetica,sans-Serif" font-size="10.00">XML_Parser</text>
</a>
</g>
</g>
<!-- dir_1ed9b03147d2a9b083fdecba41e1f286 -->
<g id="node1" class="node">
<title>dir_1ed9b03147d2a9b083fdecba41e1f286</title>
<g id="a_node1"><a xlink:href="dir_1ed9b03147d2a9b083fdecba41e1f286.html" target="_top" xlink:title="Private_Headers">
<polygon fill="#a2b4d6" stroke="#404040" points="112.5,-52 15.5,-52 15.5,-16 112.5,-16 112.5,-52"/>
<text text-anchor="middle" x="64" y="-31.5" font-family="Helvetica,sans-Serif" font-size="10.00">Private_Headers</text>
</a>
</g>
</g>
<!-- dir_5972d9f98ba393c5dafcce8430403af1 -->
<g id="node2" class="node">
<title>dir_5972d9f98ba393c5dafcce8430403af1</title>
<g id="a_node2"><a xlink:href="dir_5972d9f98ba393c5dafcce8430403af1.html" target="_top" xlink:title="Public_Headers">
<polygon fill="#edf0f7" stroke="#404040" stroke-width="2" points="112,-124 20,-124 20,-88 112,-88 112,-124"/>
<text text-anchor="middle" x="66" y="-103.5" font-family="Helvetica,sans-Serif" font-size="10.00">Public_Headers</text>
</a>
</g>
</g>
<!-- dir_5972d9f98ba393c5dafcce8430403af1&#45;&gt;dir_1ed9b03147d2a9b083fdecba41e1f286 -->
<g id="edge1" class="edge">
<title>dir_5972d9f98ba393c5dafcce8430403af1&#45;&gt;dir_1ed9b03147d2a9b083fdecba41e1f286</title>
<path fill="none" stroke="black" d="M65.51,-87.7C65.29,-79.98 65.02,-70.71 64.77,-62.11"/>
<polygon fill="black" stroke="black" points="68.27,-62 64.49,-52.1 61.28,-62.2 68.27,-62"/>
<g id="a_edge1&#45;headlabel"><a xlink:href="dir_000002_000001.html" target="_top" xlink:title="1">
<text text-anchor="middle" x="71.21" y="-63.01" font-family="Helvetica,sans-Serif" font-size="10.00">1</text>
</a>
</g>
</g>
<!-- dir_302a6c1e39f497f2400c4a31eb09d54e -->
<g id="node3" class="node">
<title>dir_302a6c1e39f497f2400c4a31eb09d54e</title>
<g id="a_node3"><a xlink:href="dir_302a6c1e39f497f2400c4a31eb09d54e.html" target="_top" xlink:title="StdType">
<polygon fill="none" stroke="#7f7f7f" points="185.5,-52 130.5,-52 130.5,-16 185.5,-16 185.5,-52"/>
<text text-anchor="middle" x="158" y="-31.5" font-family="Helvetica,sans-Serif" font-size="10.00">StdType</text>
</a>
</g>
</g>
<!-- dir_5972d9f98ba393c5dafcce8430403af1&#45;&gt;dir_302a6c1e39f497f2400c4a31eb09d54e -->
<g id="edge2" class="edge">
<title>dir_5972d9f98ba393c5dafcce8430403af1&#45;&gt;dir_302a6c1e39f497f2400c4a31eb09d54e</title>
<path fill="none" stroke="black" d="M88.74,-87.7C100.44,-78.8 114.86,-67.82 127.51,-58.2"/>
<polygon fill="black" stroke="black" points="129.68,-60.94 135.52,-52.1 125.44,-55.37 129.68,-60.94"/>
<g id="a_edge2&#45;headlabel"><a xlink:href="dir_000002_000003.html" target="_top" xlink:title="2">
<text text-anchor="middle" x="128.54" y="-62.88" font-family="Helvetica,sans-Serif" font-size="10.00">2</text>
</a>
</g>
</g>
<!-- dir_ebd86065482a4d0dafa6096767bfb3e0 -->
<g id="node4" class="node">
<title>dir_ebd86065482a4d0dafa6096767bfb3e0</title>
<g id="a_node4"><a xlink:href="dir_ebd86065482a4d0dafa6096767bfb3e0.html" target="_top" xlink:title="Verbose">
<polygon fill="none" stroke="#7f7f7f" points="260,-52 204,-52 204,-16 260,-16 260,-52"/>
<text text-anchor="middle" x="232" y="-31.5" font-family="Helvetica,sans-Serif" font-size="10.00">Verbose</text>
</a>
</g>
</g>
<!-- dir_5972d9f98ba393c5dafcce8430403af1&#45;&gt;dir_ebd86065482a4d0dafa6096767bfb3e0 -->
<g id="edge3" class="edge">
<title>dir_5972d9f98ba393c5dafcce8430403af1&#45;&gt;dir_ebd86065482a4d0dafa6096767bfb3e0</title>
<path fill="none" stroke="black" d="M108.89,-87.89C131.91,-78.59 160.95,-66.67 194.26,-52.25"/>
<polygon fill="black" stroke="black" points="196,-55.31 203.77,-48.11 193.21,-48.89 196,-55.31"/>
<g id="a_edge3&#45;headlabel"><a xlink:href="dir_000002_000004.html" target="_top" xlink:title="2">
<text text-anchor="middle" x="193.83" y="-56.85" font-family="Helvetica,sans-Serif" font-size="10.00">2</text>
</a>
</g>
</g>
</g>
</svg>
