<?xml version="1.0" encoding="UTF-8" standalone="no"?>
<!DOCTYPE svg PUBLIC "-//W3C//DTD SVG 1.1//EN"
 "http://www.w3.org/Graphics/SVG/1.1/DTD/svg11.dtd">
<!-- Generated by graphviz version 2.43.0 (0)
 -->
<!-- Title: LwXMLP Pages: 1 -->
<svg width="189pt" height="148pt"
 viewBox="0.00 0.00 189.00 148.00" xmlns="http://www.w3.org/2000/svg" xmlns:xlink="http://www.w3.org/1999/xlink">
<g id="graph0" class="graph" transform="scale(1 1) rotate(0) translate(4 144)">
<title>LwXMLP</title>
<polygon fill="white" stroke="transparent" points="-4,4 -4,-144 185,-144 185,4 -4,4"/>
<g id="clust1" class="cluster">
<title>clusterdir_96e336c3c6e7cff8ac7fc49ddb494e69</title>
<g id="a_clust1"><a xlink:href="dir_96e336c3c6e7cff8ac7fc49ddb494e69.html" target="_top">
<polygon fill="#edf0f7" stroke="#404040" stroke-width="2" points="8,-8 8,-132 173,-132 173,-8 8,-8"/>
</a>
</g>
</g>
<!-- dir_96e336c3c6e7cff8ac7fc49ddb494e69 -->
<g id="node1" class="node">
<title>dir_96e336c3c6e7cff8ac7fc49ddb494e69</title>
<text text-anchor="middle" x="136" y="-103.5" font-family="Helvetica,sans-Serif" font-size="10.00">LwXMLP</text>
</g>
<!-- dir_302a6c1e39f497f2400c4a31eb09d54e -->
<g id="node2" class="node">
<title>dir_302a6c1e39f497f2400c4a31eb09d54e</title>
<g id="a_node2"><a xlink:href="dir_302a6c1e39f497f2400c4a31eb09d54e.html" target="_top" xlink:title="StdType">
<polygon fill="#a2b4d6" stroke="#404040" points="75.5,-52 20.5,-52 20.5,-16 75.5,-16 75.5,-52"/>
<text text-anchor="middle" x="48" y="-31.5" font-family="Helvetica,sans-Serif" font-size="10.00">StdType</text>
</a>
</g>
</g>
<!-- dir_ebd86065482a4d0dafa6096767bfb3e0 -->
<g id="node3" class="node">
<title>dir_ebd86065482a4d0dafa6096767bfb3e0</title>
<g id="a_node3"><a xlink:href="dir_ebd86065482a4d0dafa6096767bfb3e0.html" target="_top" xlink:title="Verbose">
<polygon fill="#a2b4d6" stroke="#404040" points="150,-52 94,-52 94,-16 150,-16 150,-52"/>
<text text-anchor="middle" x="122" y="-31.5" font-family="Helvetica,sans-Serif" font-size="10.00">Verbose</text>
</a>
</g>
</g>
<!-- dir_8095c46b9976772c7fc6dc946e45dc36 -->
<g id="node4" class="node">
<title>dir_8095c46b9976772c7fc6dc946e45dc36</title>
<g id="a_node4"><a xlink:href="dir_8095c46b9976772c7fc6dc946e45dc36.html" target="_top" xlink:title="XML_Parser">
<polygon fill="#a2b4d6" stroke="#404040" points="89.5,-124 16.5,-124 16.5,-88 89.5,-88 89.5,-124"/>
<text text-anchor="middle" x="53" y="-103.5" font-family="Helvetica,sans-Serif" font-size="10.00">XML_Parser</text>
</a>
</g>
</g>
<!-- dir_8095c46b9976772c7fc6dc946e45dc36&#45;&gt;dir_302a6c1e39f497f2400c4a31eb09d54e -->
<g id="edge1" class="edge">
<title>dir_8095c46b9976772c7fc6dc946e45dc36&#45;&gt;dir_302a6c1e39f497f2400c4a31eb09d54e</title>
<path fill="none" stroke="black" d="M51.76,-87.7C51.21,-79.98 50.55,-70.71 49.94,-62.11"/>
<polygon fill="black" stroke="black" points="53.43,-61.83 49.22,-52.1 46.44,-62.33 53.43,-61.83"/>
<g id="a_edge1&#45;headlabel"><a xlink:href="dir_000005_000003.html" target="_top" xlink:title="2">
<text text-anchor="middle" x="56.51" y="-62.71" font-family="Helvetica,sans-Serif" font-size="10.00">2</text>
</a>
</g>
</g>
<!-- dir_8095c46b9976772c7fc6dc946e45dc36&#45;&gt;dir_ebd86065482a4d0dafa6096767bfb3e0 -->
<g id="edge2" class="edge">
<title>dir_8095c46b9976772c7fc6dc946e45dc36&#45;&gt;dir_ebd86065482a4d0dafa6096767bfb3e0</title>
<path fill="none" stroke="black" d="M70.06,-87.7C78.5,-79.14 88.82,-68.66 98.04,-59.3"/>
<polygon fill="black" stroke="black" points="100.61,-61.68 105.14,-52.1 95.63,-56.77 100.61,-61.68"/>
<g id="a_edge2&#45;headlabel"><a xlink:href="dir_000005_000004.html" target="_top" xlink:title="2">
<text text-anchor="middle" x="100.11" y="-63.74" font-family="Helvetica,sans-Serif" font-size="10.00">2</text>
</a>
</g>
</g>
</g>
</svg>
