<?xml version="1.0" encoding="UTF-8" standalone="no"?>
<!DOCTYPE svg PUBLIC "-//W3C//DTD SVG 1.1//EN"
 "http://www.w3.org/Graphics/SVG/1.1/DTD/svg11.dtd">
<!-- Generated by graphviz version 2.43.0 (0)
 -->
<!-- Title: Private_Headers Pages: 1 -->
<svg width="136pt" height="167pt"
 viewBox="0.00 0.00 136.00 167.00" xmlns="http://www.w3.org/2000/svg" xmlns:xlink="http://www.w3.org/1999/xlink">
<g id="graph0" class="graph" transform="scale(1 1) rotate(0) translate(4 163)">
<title>Private_Headers</title>
<polygon fill="white" stroke="transparent" points="-4,4 -4,-163 132,-163 132,4 -4,4"/>
<g id="clust1" class="cluster">
<title>clusterdir_8095c46b9976772c7fc6dc946e45dc36</title>
<g id="a_clust1"><a xlink:href="dir_8095c46b9976772c7fc6dc946e45dc36.html" target="_top" xlink:title="XML_Parser">
<polygon fill="#edf0f7" stroke="#7f7f7f" stroke-dasharray="5,2" points="8,-8 8,-151 120,-151 120,-8 8,-8"/>
<text text-anchor="middle" x="64" y="-139" font-family="Helvetica,sans-Serif" font-size="10.00">XML_Parser</text>
</a>
</g>
</g>
<!-- dir_5972d9f98ba393c5dafcce8430403af1 -->
<g id="node1" class="node">
<title>dir_5972d9f98ba393c5dafcce8430403af1</title>
<g id="a_node1"><a xlink:href="dir_5972d9f98ba393c5dafcce8430403af1.html" target="_top" xlink:title="Public_Headers">
<polygon fill="#a2b4d6" stroke="#404040" points="110,-52 18,-52 18,-16 110,-16 110,-52"/>
<text text-anchor="middle" x="64" y="-31.5" font-family="Helvetica,sans-Serif" font-size="10.00">Public_Headers</text>
</a>
</g>
</g>
<!-- dir_1ed9b03147d2a9b083fdecba41e1f286 -->
<g id="node2" class="node">
<title>dir_1ed9b03147d2a9b083fdecba41e1f286</title>
<g id="a_node2"><a xlink:href="dir_1ed9b03147d2a9b083fdecba41e1f286.html" target="_top" xlink:title="Private_Headers">
<polygon fill="#edf0f7" stroke="#404040" stroke-width="2" points="112.5,-124 15.5,-124 15.5,-88 112.5,-88 112.5,-124"/>
<text text-anchor="middle" x="64" y="-103.5" font-family="Helvetica,sans-Serif" font-size="10.00">Private_Headers</text>
</a>
</g>
</g>
<!-- dir_1ed9b03147d2a9b083fdecba41e1f286&#45;&gt;dir_5972d9f98ba393c5dafcce8430403af1 -->
<g id="edge1" class="edge">
<title>dir_1ed9b03147d2a9b083fdecba41e1f286&#45;&gt;dir_5972d9f98ba393c5dafcce8430403af1</title>
<path fill="none" stroke="black" d="M64,-87.7C64,-79.98 64,-70.71 64,-62.11"/>
<polygon fill="black" stroke="black" points="67.5,-62.1 64,-52.1 60.5,-62.1 67.5,-62.1"/>
<g id="a_edge1&#45;headlabel"><a xlink:href="dir_000001_000002.html" target="_top" xlink:title="2">
<text text-anchor="middle" x="70.34" y="-63.2" font-family="Helvetica,sans-Serif" font-size="10.00">2</text>
</a>
</g>
</g>
</g>
</svg>
