<svg id="Layer_1" data-name="Layer 1" xmlns="http://www.w3.org/2000/svg" viewBox="0 0 588.03 575.96" height="200px" width="200px"><rect x="201.13" y="196.52" width="192.06" height="192.06" style="fill:#4198b5"/><rect x="201.13" y="196.52" width="192.06" height="192.06" style="fill:none;stroke:#4198b5;stroke-linecap:square;stroke-linejoin:round;stroke-width:9px"/><rect x="160.94" y="156.34" width="272.42" height="272.42" style="fill:none;stroke:#4198b5;stroke-linecap:square;stroke-linejoin:round;stroke-width:14px"/><path d="M348.36,380.72H326.19v14.21h18.54a5.54,5.54,0,0,1,3.84,1.16,4,4,0,0,1,1.27,3.09,3.89,3.89,0,0,1-1.29,3.07,5.61,5.61,0,0,1-3.82,1.14H326.19V421.7a7.4,7.4,0,0,1-1.57,5.17,5.7,5.7,0,0,1-8.12,0,7.41,7.41,0,0,1-1.57-5.15V378.94a9.35,9.35,0,0,1,.72-4,4.45,4.45,0,0,1,2.26-2.24,9.42,9.42,0,0,1,3.92-.7h26.53a5.79,5.79,0,0,1,4,1.19,4,4,0,0,1,1.31,3.13,4.08,4.08,0,0,1-1.31,3.17A5.79,5.79,0,0,1,348.36,380.72Z" transform="translate(-105.48 -111.52)" style="fill:#fff"/><path d="M401.4,418.85l-9-33.32-9.1,33.32c-.7,2.53-1.27,4.34-1.68,5.44a7.29,7.29,0,0,1-2.18,3,6.23,6.23,0,0,1-4.13,1.31,6.75,6.75,0,0,1-3.43-.78,5.9,5.9,0,0,1-2.18-2.2,13.94,13.94,0,0,1-1.37-3.37c-.35-1.3-.67-2.51-.95-3.62l-9.25-37.42a22.09,22.09,0,0,1-.83-5,4.9,4.9,0,0,1,1.52-3.64,5.14,5.14,0,0,1,3.75-1.48c2.05,0,3.42.66,4.13,2a22.16,22.16,0,0,1,1.86,5.73l7.28,32.44L384,380.87a48.4,48.4,0,0,1,1.63-5.31,7.6,7.6,0,0,1,2.35-3.14,6.77,6.77,0,0,1,4.43-1.33,6.48,6.48,0,0,1,4.42,1.38,7.65,7.65,0,0,1,2.18,3c.4,1.09.95,2.88,1.63,5.38l8.22,30.36,7.28-32.44a38.57,38.57,0,0,1,1-4,6.35,6.35,0,0,1,1.63-2.58,4.58,4.58,0,0,1,3.35-1.14,5.25,5.25,0,0,1,3.74,1.46,4.84,4.84,0,0,1,1.53,3.66,24,24,0,0,1-.83,5l-9.25,37.42q-.94,3.8-1.58,5.55a7.25,7.25,0,0,1-2.12,3.09,6.15,6.15,0,0,1-4.23,1.33,6.28,6.28,0,0,1-4.13-1.29,7.1,7.1,0,0,1-2.16-2.9Q402.5,422.77,401.4,418.85Z" transform="translate(-105.48 -111.52)" style="fill:#fff"/><path d="M453.63,419.23l-8.91-35.4v38.36A7,7,0,0,1,443.3,427a5.22,5.22,0,0,1-7.48,0,6.92,6.92,0,0,1-1.44-4.8v-44c0-2.43.63-4.06,1.89-4.91a9.07,9.07,0,0,1,5.12-1.27h3.49a13.22,13.22,0,0,1,4.56.57,3.86,3.86,0,0,1,2.11,2,32.77,32.77,0,0,1,1.55,4.82l8.08,30.44,8.07-30.44a32.77,32.77,0,0,1,1.55-4.82,3.86,3.86,0,0,1,2.11-2,13.28,13.28,0,0,1,4.57-.57H481a9,9,0,0,1,5.12,1.27c1.26.85,1.9,2.48,1.9,4.91v44a7,7,0,0,1-1.43,4.78,4.83,4.83,0,0,1-3.8,1.59,4.73,4.73,0,0,1-3.68-1.59,7,7,0,0,1-1.44-4.78V383.83l-8.91,35.4c-.58,2.3-1.06,4-1.42,5.06a6.93,6.93,0,0,1-2,2.94,5.89,5.89,0,0,1-4.09,1.33,6.25,6.25,0,0,1-3.34-.85,6.14,6.14,0,0,1-2.12-2.18,12.42,12.42,0,0,1-1.2-2.94C454.23,421.51,453.94,420.4,453.63,419.23Z" transform="translate(-105.48 -111.52)" style="fill:#fff"/><circle cx="221.21" cy="216.67" r="11.33" style="fill:#fff"/><line x1="457.59" y1="292.55" x2="533.2" y2="292.55" style="fill:none;stroke:#4198b5;stroke-linecap:square;stroke-linejoin:round;stroke-width:11px"/><path d="M663.22,382.78a21.29,21.29,0,1,1-21.29,21.28A21.3,21.3,0,0,1,663.22,382.78Z" transform="translate(-105.48 -111.52)" style="fill:none;stroke:#4198b5;stroke-linecap:square;stroke-linejoin:round;stroke-width:11px"/><path d="M664.56,181.51a21.28,21.28,0,1,1-21.28,21.28A21.29,21.29,0,0,1,664.56,181.51Z" transform="translate(-105.48 -111.52)" style="fill:none;stroke:#4198b5;stroke-linecap:square;stroke-linejoin:round;stroke-width:11px"/><polyline points="452.34 182.4 530.97 182.4 559 154.37 559 117.37" style="fill:none;stroke:#4198b5;stroke-linecap:square;stroke-linejoin:round;stroke-width:11px"/><rect x="445.83" y="171.48" width="34.05" height="21.76" style="fill:#4198b5"/><path d="M132.27,626.7a21.29,21.29,0,1,1,21.28-21.29A21.3,21.3,0,0,1,132.27,626.7Z" transform="translate(-105.48 -111.52)" style="fill:none;stroke:#4198b5;stroke-linecap:square;stroke-linejoin:round;stroke-width:11px"/><polyline points="133.52 402.77 54.9 402.77 26.86 430.8 26.86 467.8" style="fill:none;stroke:#4198b5;stroke-linecap:square;stroke-linejoin:round;stroke-width:11px"/><path d="M666.73,626.7a21.29,21.29,0,1,0-21.28-21.29A21.3,21.3,0,0,0,666.73,626.7Z" transform="translate(-105.48 -111.52)" style="fill:none;stroke:#4198b5;stroke-linecap:square;stroke-linejoin:round;stroke-width:11px"/><polyline points="454.51 402.77 533.14 402.77 561.17 430.8 561.17 467.8" style="fill:none;stroke:#4198b5;stroke-linecap:square;stroke-linejoin:round;stroke-width:11px"/><path d="M138,181.51a21.28,21.28,0,1,0,21.28,21.28A21.29,21.29,0,0,0,138,181.51Z" transform="translate(-105.48 -111.52)" style="fill:none;stroke:#4198b5;stroke-linecap:square;stroke-linejoin:round;stroke-width:11px"/><polyline points="139.25 182.4 60.62 182.4 32.59 154.37 32.59 117.37" style="fill:none;stroke:#4198b5;stroke-linecap:square;stroke-linejoin:round;stroke-width:11px"/><line x1="140.65" y1="292.55" x2="65.04" y2="292.55" style="fill:none;stroke:#4198b5;stroke-linecap:square;stroke-linejoin:round;stroke-width:11px"/><path d="M146,382.78a21.29,21.29,0,1,0,21.28,21.28A21.3,21.3,0,0,0,146,382.78Z" transform="translate(-105.48 -111.52)" style="fill:none;stroke:#4198b5;stroke-linecap:square;stroke-linejoin:round;stroke-width:11px"/><line x1="297.15" y1="126.93" x2="297.15" y2="51.32" style="fill:none;stroke:#4198b5;stroke-linecap:square;stroke-linejoin:round;stroke-width:11px"/><path d="M381.36,138.3a21.28,21.28,0,1,1,21.28,21.28A21.29,21.29,0,0,1,381.36,138.3Z" transform="translate(-105.48 -111.52)" style="fill:none;stroke:#4198b5;stroke-linecap:square;stroke-linejoin:round;stroke-width:11px"/><line x1="294.85" y1="449.04" x2="294.85" y2="524.64" style="fill:none;stroke:#4198b5;stroke-linecap:square;stroke-linejoin:round;stroke-width:11px"/><path d="M379.05,660.7a21.29,21.29,0,1,0,21.29-21.28A21.29,21.29,0,0,0,379.05,660.7Z" transform="translate(-105.48 -111.52)" style="fill:none;stroke:#4198b5;stroke-linecap:square;stroke-linejoin:round;stroke-width:11px"/><rect x="445.83" y="281.48" width="34.05" height="21.76" style="fill:#4198b5"/><rect x="445.83" y="391.48" width="34.05" height="21.76" style="fill:#4198b5"/><rect x="113.49" y="172.6" width="34.05" height="21.76" style="fill:#4198b5"/><rect x="113.49" y="282.6" width="34.05" height="21.76" style="fill:#4198b5"/><rect x="113.49" y="392.6" width="34.05" height="21.76" style="fill:#4198b5"/><rect x="286.63" y="108.46" width="21.76" height="34.05" style="fill:#4198b5"/><rect x="284.13" y="441.46" width="21.76" height="34.05" style="fill:#4198b5"/></svg>