<?xml version="1.0" encoding="UTF-8" standalone="no"?>
<!DOCTYPE svg PUBLIC "-//W3C//DTD SVG 1.1//EN"
 "http://www.w3.org/Graphics/SVG/1.1/DTD/svg11.dtd">
<!-- Generated by graphviz version 2.43.0 (0)
 -->
<!-- Title: strStaticInstancesType Pages: 1 -->
<svg width="570pt" height="452pt"
 viewBox="0.00 0.00 569.50 452.00" xmlns="http://www.w3.org/2000/svg" xmlns:xlink="http://www.w3.org/1999/xlink">
<g id="graph0" class="graph" transform="scale(1 1) rotate(0) translate(4 448)">
<title>strStaticInstancesType</title>
<polygon fill="white" stroke="transparent" points="-4,4 -4,-448 565.5,-448 565.5,4 -4,4"/>
<!-- Node1 -->
<g id="node1" class="node">
<title>Node1</title>
<g id="a_node1"><a xlink:title="it hold the parser instance that may be allocated by the parser if it was enabled">
<polygon fill="#bfbfbf" stroke="black" points="225,-0.5 225,-57.5 352,-57.5 352,-0.5 225,-0.5"/>
<text text-anchor="middle" x="288.5" y="-45.5" font-family="Helvetica,sans-Serif" font-size="10.00">strStaticInstancesType</text>
<polyline fill="none" stroke="black" points="225,-38.5 352,-38.5 "/>
<text text-anchor="start" x="233" y="-26.5" font-family="Helvetica,sans-Serif" font-size="10.00">+ bReserevedInstance</text>
<polyline fill="none" stroke="black" points="225,-19.5 352,-19.5 "/>
<text text-anchor="middle" x="288.5" y="-7.5" font-family="Helvetica,sans-Serif" font-size="10.00"> </text>
</a>
</g>
</g>
<!-- Node2 -->
<g id="node2" class="node">
<title>Node2</title>
<g id="a_node2"><a xlink:href="struct_lw_x_m_l_p__str_x_m_l_parse_instance_type.html" target="_top" xlink:title="the XML parser instance which shall be created/allocated when the parser is started and it will be us...">
<polygon fill="white" stroke="black" points="195.5,-105.5 195.5,-272.5 381.5,-272.5 381.5,-105.5 195.5,-105.5"/>
<text text-anchor="middle" x="288.5" y="-260.5" font-family="Helvetica,sans-Serif" font-size="10.00">LwXMLP_strXMLParseInstanceType</text>
<polyline fill="none" stroke="black" points="195.5,-253.5 381.5,-253.5 "/>
<text text-anchor="start" x="203.5" y="-241.5" font-family="Helvetica,sans-Serif" font-size="10.00">+ u8AvaliableAttibuteListCount</text>
<text text-anchor="start" x="203.5" y="-230.5" font-family="Helvetica,sans-Serif" font-size="10.00">+ bFoundExternalEntity</text>
<text text-anchor="start" x="203.5" y="-219.5" font-family="Helvetica,sans-Serif" font-size="10.00">+ bParsingDTDInProgress</text>
<text text-anchor="start" x="203.5" y="-208.5" font-family="Helvetica,sans-Serif" font-size="10.00">+ bStandAloneDocument</text>
<text text-anchor="start" x="203.5" y="-197.5" font-family="Helvetica,sans-Serif" font-size="10.00">+ pu8ParsedNotaion</text>
<text text-anchor="start" x="203.5" y="-186.5" font-family="Helvetica,sans-Serif" font-size="10.00">+ u8FoundReference</text>
<text text-anchor="start" x="203.5" y="-175.5" font-family="Helvetica,sans-Serif" font-size="10.00">+ bSecondLevelBufferEnabled</text>
<text text-anchor="start" x="203.5" y="-164.5" font-family="Helvetica,sans-Serif" font-size="10.00">+ pu8SavedLastParserLocation</text>
<text text-anchor="start" x="203.5" y="-153.5" font-family="Helvetica,sans-Serif" font-size="10.00">+ pu8SavedCircularBufferEnd</text>
<text text-anchor="start" x="203.5" y="-142.5" font-family="Helvetica,sans-Serif" font-size="10.00">+ u8SecondLevelBuffer</text>
<text text-anchor="start" x="203.5" y="-131.5" font-family="Helvetica,sans-Serif" font-size="10.00">and 44 more...</text>
<polyline fill="none" stroke="black" points="195.5,-124.5 381.5,-124.5 "/>
<text text-anchor="middle" x="288.5" y="-112.5" font-family="Helvetica,sans-Serif" font-size="10.00"> </text>
</a>
</g>
</g>
<!-- Node2&#45;&gt;Node1 -->
<g id="edge1" class="edge">
<title>Node2&#45;&gt;Node1</title>
<path fill="none" stroke="#404040" d="M288.5,-105.3C288.5,-92.96 288.5,-80.73 288.5,-69.84"/>
<polygon fill="none" stroke="#404040" points="288.5,-69.74 284.5,-63.74 288.5,-57.74 292.5,-63.74 288.5,-69.74"/>
<text text-anchor="middle" x="364" y="-79" font-family="Helvetica,sans-Serif" font-size="10.00"> +objstrXMLParseInstanceType</text>
</g>
<!-- Node2&#45;&gt;Node2 -->
<g id="edge5" class="edge">
<title>Node2&#45;&gt;Node2</title>
<path fill="none" stroke="#404040" d="M381.62,-205.96C392.45,-202.83 399.5,-197.18 399.5,-189 399.5,-184.14 397.02,-180.18 392.73,-177.1"/>
<polygon fill="none" stroke="#404040" points="392.54,-177.02 385.42,-178.17 381.62,-172.04 388.74,-170.89 392.54,-177.02"/>
<text text-anchor="middle" x="464.5" y="-186.5" font-family="Helvetica,sans-Serif" font-size="10.00"> +objpsrFuncCallBackType</text>
</g>
<!-- Node3 -->
<g id="node3" class="node">
<title>Node3</title>
<g id="a_node3"><a xlink:href="structstr_attribute_list_type.html" target="_top" xlink:title="it the structure which hold the attributes name/behavior per element">
<polygon fill="white" stroke="black" points="0,-331.5 0,-432.5 185,-432.5 185,-331.5 0,-331.5"/>
<text text-anchor="middle" x="92.5" y="-420.5" font-family="Helvetica,sans-Serif" font-size="10.00">strAttributeListType</text>
<polyline fill="none" stroke="black" points="0,-413.5 185,-413.5 "/>
<text text-anchor="start" x="8" y="-401.5" font-family="Helvetica,sans-Serif" font-size="10.00">+ u8AttributeName</text>
<text text-anchor="start" x="8" y="-390.5" font-family="Helvetica,sans-Serif" font-size="10.00">+ u8ElementName</text>
<text text-anchor="start" x="8" y="-379.5" font-family="Helvetica,sans-Serif" font-size="10.00">+ u8AttributeValue</text>
<text text-anchor="start" x="8" y="-368.5" font-family="Helvetica,sans-Serif" font-size="10.00">+ objenumAttibuteTypeType</text>
<text text-anchor="start" x="8" y="-357.5" font-family="Helvetica,sans-Serif" font-size="10.00">+ objenumAttributeBehaviourType</text>
<polyline fill="none" stroke="black" points="0,-350.5 185,-350.5 "/>
<text text-anchor="middle" x="92.5" y="-338.5" font-family="Helvetica,sans-Serif" font-size="10.00"> </text>
</a>
</g>
</g>
<!-- Node3&#45;&gt;Node2 -->
<g id="edge2" class="edge">
<title>Node3&#45;&gt;Node2</title>
<path fill="none" stroke="#404040" d="M127.94,-331.16C138.46,-317.59 150.41,-303.27 162.5,-291 170.01,-283.37 178.09,-275.78 186.39,-268.37"/>
<polygon fill="none" stroke="#404040" points="186.45,-268.32 188.33,-261.35 195.48,-260.41 193.6,-267.37 186.45,-268.32"/>
<text text-anchor="middle" x="223.5" y="-294" font-family="Helvetica,sans-Serif" font-size="10.00"> +objstrAttributeListType</text>
</g>
<!-- Node4 -->
<g id="node4" class="node">
<title>Node4</title>
<g id="a_node4"><a xlink:href="structstr_entity_type.html" target="_top" xlink:title="it the structure which hold the entities">
<polygon fill="white" stroke="black" points="203.5,-320.5 203.5,-443.5 373.5,-443.5 373.5,-320.5 203.5,-320.5"/>
<text text-anchor="middle" x="288.5" y="-431.5" font-family="Helvetica,sans-Serif" font-size="10.00">strEntityType</text>
<polyline fill="none" stroke="black" points="203.5,-424.5 373.5,-424.5 "/>
<text text-anchor="start" x="211.5" y="-412.5" font-family="Helvetica,sans-Serif" font-size="10.00">+ bParsedEntity</text>
<text text-anchor="start" x="211.5" y="-401.5" font-family="Helvetica,sans-Serif" font-size="10.00">+ u8EntityValue</text>
<text text-anchor="start" x="211.5" y="-390.5" font-family="Helvetica,sans-Serif" font-size="10.00">+ u8EntityName</text>
<text text-anchor="start" x="211.5" y="-379.5" font-family="Helvetica,sans-Serif" font-size="10.00">+ u8EntityNameLength</text>
<text text-anchor="start" x="211.5" y="-368.5" font-family="Helvetica,sans-Serif" font-size="10.00">+ u8EntityValueLength</text>
<text text-anchor="start" x="211.5" y="-357.5" font-family="Helvetica,sans-Serif" font-size="10.00">+ objenumReferenceTypeType</text>
<text text-anchor="start" x="211.5" y="-346.5" font-family="Helvetica,sans-Serif" font-size="10.00">+ objenumEntityStoreTypeType</text>
<polyline fill="none" stroke="black" points="203.5,-339.5 373.5,-339.5 "/>
<text text-anchor="middle" x="288.5" y="-327.5" font-family="Helvetica,sans-Serif" font-size="10.00"> </text>
</a>
</g>
</g>
<!-- Node4&#45;&gt;Node2 -->
<g id="edge3" class="edge">
<title>Node4&#45;&gt;Node2</title>
<path fill="none" stroke="#404040" d="M288.5,-320.3C288.5,-308.92 288.5,-296.76 288.5,-284.63"/>
<polygon fill="none" stroke="#404040" points="288.5,-284.53 284.5,-278.53 288.5,-272.53 292.5,-278.53 288.5,-284.53"/>
<text text-anchor="middle" x="334" y="-294" font-family="Helvetica,sans-Serif" font-size="10.00"> +objstrEntityType</text>
</g>
<!-- Node5 -->
<g id="node5" class="node">
<title>Node5</title>
<g id="a_node5"><a xlink:href="struct_lw_x_m_l__str_found_reference_type.html" target="_top" xlink:title="it the structure which hold the found entity index and the corresponding type">
<polygon fill="white" stroke="black" points="391.5,-348 391.5,-416 561.5,-416 561.5,-348 391.5,-348"/>
<text text-anchor="middle" x="476.5" y="-404" font-family="Helvetica,sans-Serif" font-size="10.00">LwXML_strFoundReferenceType</text>
<polyline fill="none" stroke="black" points="391.5,-397 561.5,-397 "/>
<text text-anchor="start" x="399.5" y="-385" font-family="Helvetica,sans-Serif" font-size="10.00">+ u8EntityIndex</text>
<text text-anchor="start" x="399.5" y="-374" font-family="Helvetica,sans-Serif" font-size="10.00">+ objenumReferenceTypeType</text>
<polyline fill="none" stroke="black" points="391.5,-367 561.5,-367 "/>
<text text-anchor="middle" x="476.5" y="-355" font-family="Helvetica,sans-Serif" font-size="10.00"> </text>
</a>
</g>
</g>
<!-- Node5&#45;&gt;Node2 -->
<g id="edge4" class="edge">
<title>Node5&#45;&gt;Node2</title>
<path fill="none" stroke="#404040" d="M443.75,-347.73C425.48,-329.17 401.74,-305.05 378.35,-281.28"/>
<polygon fill="none" stroke="#404040" points="378.17,-281.1 371.11,-279.63 369.76,-272.55 376.81,-274.02 378.17,-281.1"/>
<text text-anchor="middle" x="464" y="-294" font-family="Helvetica,sans-Serif" font-size="10.00"> +objstrFoundReferenceType</text>
</g>
</g>
</svg>
