<?xml version="1.0" encoding="UTF-8" standalone="no"?>
<!DOCTYPE svg PUBLIC "-//W3C//DTD SVG 1.1//EN"
 "http://www.w3.org/Graphics/SVG/1.1/DTD/svg11.dtd">
<!-- Generated by graphviz version 2.43.0 (0)
 -->
<!-- Title: LwXMLP_strXMLParseInstanceType Pages: 1 -->
<svg width="570pt" height="347pt"
 viewBox="0.00 0.00 569.50 347.00" xmlns="http://www.w3.org/2000/svg" xmlns:xlink="http://www.w3.org/1999/xlink">
<g id="graph0" class="graph" transform="scale(1 1) rotate(0) translate(4 343)">
<title>LwXMLP_strXMLParseInstanceType</title>
<polygon fill="white" stroke="transparent" points="-4,4 -4,-343 565.5,-343 565.5,4 -4,4"/>
<!-- Node1 -->
<g id="node1" class="node">
<title>Node1</title>
<g id="a_node1"><a xlink:title="the XML parser instance which shall be created/allocated when the parser is started and it will be us...">
<polygon fill="#bfbfbf" stroke="black" points="195.5,-0.5 195.5,-167.5 381.5,-167.5 381.5,-0.5 195.5,-0.5"/>
<text text-anchor="middle" x="288.5" y="-155.5" font-family="Helvetica,sans-Serif" font-size="10.00">LwXMLP_strXMLParseInstanceType</text>
<polyline fill="none" stroke="black" points="195.5,-148.5 381.5,-148.5 "/>
<text text-anchor="start" x="203.5" y="-136.5" font-family="Helvetica,sans-Serif" font-size="10.00">+ u8AvaliableAttibuteListCount</text>
<text text-anchor="start" x="203.5" y="-125.5" font-family="Helvetica,sans-Serif" font-size="10.00">+ bFoundExternalEntity</text>
<text text-anchor="start" x="203.5" y="-114.5" font-family="Helvetica,sans-Serif" font-size="10.00">+ bParsingDTDInProgress</text>
<text text-anchor="start" x="203.5" y="-103.5" font-family="Helvetica,sans-Serif" font-size="10.00">+ bStandAloneDocument</text>
<text text-anchor="start" x="203.5" y="-92.5" font-family="Helvetica,sans-Serif" font-size="10.00">+ pu8ParsedNotaion</text>
<text text-anchor="start" x="203.5" y="-81.5" font-family="Helvetica,sans-Serif" font-size="10.00">+ u8FoundReference</text>
<text text-anchor="start" x="203.5" y="-70.5" font-family="Helvetica,sans-Serif" font-size="10.00">+ bSecondLevelBufferEnabled</text>
<text text-anchor="start" x="203.5" y="-59.5" font-family="Helvetica,sans-Serif" font-size="10.00">+ pu8SavedLastParserLocation</text>
<text text-anchor="start" x="203.5" y="-48.5" font-family="Helvetica,sans-Serif" font-size="10.00">+ pu8SavedCircularBufferEnd</text>
<text text-anchor="start" x="203.5" y="-37.5" font-family="Helvetica,sans-Serif" font-size="10.00">+ u8SecondLevelBuffer</text>
<text text-anchor="start" x="203.5" y="-26.5" font-family="Helvetica,sans-Serif" font-size="10.00">and 44 more...</text>
<polyline fill="none" stroke="black" points="195.5,-19.5 381.5,-19.5 "/>
<text text-anchor="middle" x="288.5" y="-7.5" font-family="Helvetica,sans-Serif" font-size="10.00"> </text>
</a>
</g>
</g>
<!-- Node1&#45;&gt;Node1 -->
<g id="edge4" class="edge">
<title>Node1&#45;&gt;Node1</title>
<path fill="none" stroke="#404040" d="M381.62,-100.96C392.45,-97.83 399.5,-92.18 399.5,-84 399.5,-79.14 397.02,-75.18 392.73,-72.1"/>
<polygon fill="none" stroke="#404040" points="392.54,-72.02 385.42,-73.17 381.62,-67.04 388.74,-65.89 392.54,-72.02"/>
<text text-anchor="middle" x="464.5" y="-81.5" font-family="Helvetica,sans-Serif" font-size="10.00"> +objpsrFuncCallBackType</text>
</g>
<!-- Node2 -->
<g id="node2" class="node">
<title>Node2</title>
<g id="a_node2"><a xlink:href="structstr_attribute_list_type.html" target="_top" xlink:title="it the structure which hold the attributes name/behavior per element">
<polygon fill="white" stroke="black" points="0,-226.5 0,-327.5 185,-327.5 185,-226.5 0,-226.5"/>
<text text-anchor="middle" x="92.5" y="-315.5" font-family="Helvetica,sans-Serif" font-size="10.00">strAttributeListType</text>
<polyline fill="none" stroke="black" points="0,-308.5 185,-308.5 "/>
<text text-anchor="start" x="8" y="-296.5" font-family="Helvetica,sans-Serif" font-size="10.00">+ u8AttributeName</text>
<text text-anchor="start" x="8" y="-285.5" font-family="Helvetica,sans-Serif" font-size="10.00">+ u8ElementName</text>
<text text-anchor="start" x="8" y="-274.5" font-family="Helvetica,sans-Serif" font-size="10.00">+ u8AttributeValue</text>
<text text-anchor="start" x="8" y="-263.5" font-family="Helvetica,sans-Serif" font-size="10.00">+ objenumAttibuteTypeType</text>
<text text-anchor="start" x="8" y="-252.5" font-family="Helvetica,sans-Serif" font-size="10.00">+ objenumAttributeBehaviourType</text>
<polyline fill="none" stroke="black" points="0,-245.5 185,-245.5 "/>
<text text-anchor="middle" x="92.5" y="-233.5" font-family="Helvetica,sans-Serif" font-size="10.00"> </text>
</a>
</g>
</g>
<!-- Node2&#45;&gt;Node1 -->
<g id="edge1" class="edge">
<title>Node2&#45;&gt;Node1</title>
<path fill="none" stroke="#404040" d="M127.94,-226.16C138.46,-212.59 150.41,-198.27 162.5,-186 170.01,-178.37 178.09,-170.78 186.39,-163.37"/>
<polygon fill="none" stroke="#404040" points="186.45,-163.32 188.33,-156.35 195.48,-155.41 193.6,-162.37 186.45,-163.32"/>
<text text-anchor="middle" x="223.5" y="-189" font-family="Helvetica,sans-Serif" font-size="10.00"> +objstrAttributeListType</text>
</g>
<!-- Node3 -->
<g id="node3" class="node">
<title>Node3</title>
<g id="a_node3"><a xlink:href="structstr_entity_type.html" target="_top" xlink:title="it the structure which hold the entities">
<polygon fill="white" stroke="black" points="203.5,-215.5 203.5,-338.5 373.5,-338.5 373.5,-215.5 203.5,-215.5"/>
<text text-anchor="middle" x="288.5" y="-326.5" font-family="Helvetica,sans-Serif" font-size="10.00">strEntityType</text>
<polyline fill="none" stroke="black" points="203.5,-319.5 373.5,-319.5 "/>
<text text-anchor="start" x="211.5" y="-307.5" font-family="Helvetica,sans-Serif" font-size="10.00">+ bParsedEntity</text>
<text text-anchor="start" x="211.5" y="-296.5" font-family="Helvetica,sans-Serif" font-size="10.00">+ u8EntityValue</text>
<text text-anchor="start" x="211.5" y="-285.5" font-family="Helvetica,sans-Serif" font-size="10.00">+ u8EntityName</text>
<text text-anchor="start" x="211.5" y="-274.5" font-family="Helvetica,sans-Serif" font-size="10.00">+ u8EntityNameLength</text>
<text text-anchor="start" x="211.5" y="-263.5" font-family="Helvetica,sans-Serif" font-size="10.00">+ u8EntityValueLength</text>
<text text-anchor="start" x="211.5" y="-252.5" font-family="Helvetica,sans-Serif" font-size="10.00">+ objenumReferenceTypeType</text>
<text text-anchor="start" x="211.5" y="-241.5" font-family="Helvetica,sans-Serif" font-size="10.00">+ objenumEntityStoreTypeType</text>
<polyline fill="none" stroke="black" points="203.5,-234.5 373.5,-234.5 "/>
<text text-anchor="middle" x="288.5" y="-222.5" font-family="Helvetica,sans-Serif" font-size="10.00"> </text>
</a>
</g>
</g>
<!-- Node3&#45;&gt;Node1 -->
<g id="edge2" class="edge">
<title>Node3&#45;&gt;Node1</title>
<path fill="none" stroke="#404040" d="M288.5,-215.3C288.5,-203.92 288.5,-191.76 288.5,-179.63"/>
<polygon fill="none" stroke="#404040" points="288.5,-179.53 284.5,-173.53 288.5,-167.53 292.5,-173.53 288.5,-179.53"/>
<text text-anchor="middle" x="334" y="-189" font-family="Helvetica,sans-Serif" font-size="10.00"> +objstrEntityType</text>
</g>
<!-- Node4 -->
<g id="node4" class="node">
<title>Node4</title>
<g id="a_node4"><a xlink:href="struct_lw_x_m_l__str_found_reference_type.html" target="_top" xlink:title="it the structure which hold the found entity index and the corresponding type">
<polygon fill="white" stroke="black" points="391.5,-243 391.5,-311 561.5,-311 561.5,-243 391.5,-243"/>
<text text-anchor="middle" x="476.5" y="-299" font-family="Helvetica,sans-Serif" font-size="10.00">LwXML_strFoundReferenceType</text>
<polyline fill="none" stroke="black" points="391.5,-292 561.5,-292 "/>
<text text-anchor="start" x="399.5" y="-280" font-family="Helvetica,sans-Serif" font-size="10.00">+ u8EntityIndex</text>
<text text-anchor="start" x="399.5" y="-269" font-family="Helvetica,sans-Serif" font-size="10.00">+ objenumReferenceTypeType</text>
<polyline fill="none" stroke="black" points="391.5,-262 561.5,-262 "/>
<text text-anchor="middle" x="476.5" y="-250" font-family="Helvetica,sans-Serif" font-size="10.00"> </text>
</a>
</g>
</g>
<!-- Node4&#45;&gt;Node1 -->
<g id="edge3" class="edge">
<title>Node4&#45;&gt;Node1</title>
<path fill="none" stroke="#404040" d="M443.75,-242.73C425.48,-224.17 401.74,-200.05 378.35,-176.28"/>
<polygon fill="none" stroke="#404040" points="378.17,-176.1 371.11,-174.63 369.76,-167.55 376.81,-169.02 378.17,-176.1"/>
<text text-anchor="middle" x="464" y="-189" font-family="Helvetica,sans-Serif" font-size="10.00"> +objstrFoundReferenceType</text>
</g>
</g>
</svg>
